<?xml version="1.0" encoding="utf-8"?>
<!-- Generator: Adobe Illustrator 22.1.0, SVG Export Plug-In . SVG Version: 6.00 Build 0)  -->
<svg version="1.1" id="Layer_1" xmlns="http://www.w3.org/2000/svg" xmlns:xlink="http://www.w3.org/1999/xlink" x="0px" y="0px"
	 viewBox="0 0 1107.7 293.8" enable-background="new 0 0 1107.7 293.8" xml:space="preserve">
<g id="Group_698" transform="translate(-16772.943 2446.922)">
	<g id="Group_696" transform="translate(334.764 305.004)">
		<path id="Path_1653" fill="#242727" d="M16871.6-2626c-6,0-16.2,1.9-30.8,5.7c7.8-9.3,14-16.6,18.5-21.7c9.7-12,11-15.9,11-18.2
			c0-4.5-2.3-7.2-6.3-7.2c-1.2,0-2.4,0.2-3.5,0.6l-0.6,0.3c-5.7,3.9-11.8,7.3-18.2,10.2c-3.2,1.4-11,5.3-24.1,12.1
			c-10.4,5.3-17.5,8.5-21.2,9.5l-0.4,0.2c-5.2,2.7-6.3,6.6-6.2,9.6c0.4,4.8,0.7,5.7,1.1,6.3c1,1.5,2.1,2.8,3.4,4.1l1.2,1.3l34.4-18
			c-2.5,3.2-5.4,6.6-8.7,10.3c-2,2.6-7.4,8.5-16.1,17.5c-2.6,2.6-5.1,5.4-7.6,8.3c-2.7,2.9-4.2,6.8-4.3,10.8c0,4.2,2.3,6.7,6.1,6.7
			c2.2,0,4.9-1.6,8.6-5.4c5.4-5.7,14-11,25.5-15.5c10.8-4.3,19.9-6.5,27.1-6.5c12.9,0,14.4,5.1,14.4,9c0,0.7-0.4,3.1-3.7,11.1
			c-4.3,10-10.2,19.3-17.4,27.5c-9,10.4-18.8,18.1-29,22.8c-11.2,5-23,8.2-35.2,9.5c-4.2-0.1-9.7-1.7-11.2-13l-0.3-2h-2.7
			c-3.4,0-6.2,3.1-8.7,9.6c-1.5,4.1-2.3,8.5-2.4,12.9c0,6.1,3.1,13.4,17.7,13.4c6.4-0.1,12.7-1,18.8-2.8
			c13.1-3.8,26.6-10.8,40.3-20.6c12.9-9,24.3-20,34-32.4c14.2-18.6,21.4-34.5,21.4-47.3C16896.4-2615.8,16892.1-2626,16871.6-2626"
			/>
		<path id="Path_1654" fill="#242727" d="M17003.2-2631.9c-10.8-7.5-23.7-11.4-36.8-11.3c-18.6,0-34.5,6.8-47.7,20.5
			s-19.8,30.1-19.8,49.2c0,19.3,6.6,35.8,19.8,49.5c13.2,13.6,29.1,20.5,47.7,20.5c13.1,0.1,26-3.9,36.8-11.4v11.4h30.5v-201.1
			h-30.5V-2631.9z M16992.5-2546.2c-13.7,14.4-36.5,15-50.9,1.3c-0.5-0.4-0.9-0.9-1.3-1.3c-7.1-7.3-11-17.2-10.8-27.4
			c-0.2-10.1,3.7-19.8,10.8-27c13.6-14.4,36.4-15,50.8-1.4c0.5,0.5,1,0.9,1.4,1.4c7.1,7.2,10.9,17,10.8,27
			C17003.4-2563.4,16999.6-2553.5,16992.5-2546.2"/>
		<path id="Path_1655" fill="#242727" d="M17112.6-2611.8c10.9-0.5,21.9,5.1,32.9,16.7l22.9-20.5c-17.6-19.2-36.6-28.4-57.1-27.6
			c-18.4,0.8-33.9,8.3-46.6,22.5c-12.6,14.2-18.6,30.9-17.8,50c0.8,19.3,8,35.6,21.7,48.6c13.7,13.1,29.8,19.3,48.2,18.5
			c18.4-0.8,35.6-10,51.5-27.8l-21.5-22.2c-10.5,11.9-20.9,18.1-31.2,18.5c-9.8,0.5-19.4-3.2-26.4-10.1c-15-14.7-15.9-38.5-2.1-54.4
			C17094-2607.3,17102.5-2611.4,17112.6-2611.8"/>
		<path id="Path_1656" fill="#242727" d="M17274.8-2631.9c-10.8-7.5-23.7-11.4-36.8-11.3c-18.6,0-34.5,6.8-47.7,20.5
			s-19.8,30.1-19.8,49.2c0,19.3,6.6,35.8,19.8,49.5c13.2,13.7,29.1,20.5,47.7,20.5c13.2,0.1,26-3.9,36.8-11.4v11.4h30.5v-139.7
			h-30.5V-2631.9z M17264-2546.2c-6.7,7.3-16.1,11.3-25.9,11.2c-9.9,0.2-19.5-3.9-26.3-11.2c-7.1-7.3-11-17.2-10.8-27.4
			c-0.2-10.1,3.7-19.8,10.8-27.1c6.8-7.3,16.3-11.4,26.3-11.2c9.8-0.1,19.3,4,25.9,11.2c7.1,7.2,11,17,10.8,27.1
			C17275-2563.4,17271.1-2553.5,17264-2546.2"/>
		<path id="Path_1657" fill="#242727" d="M17523.7-2546.4c-6.6,7.4-16.2,11.6-26.1,11.4c-9.9,0.1-19.4-4-26.1-11.2
			c-7.2-7.3-11.1-17.1-10.9-27.3v-50.9h40.2v-31.4h-40.2v-49.2h-30.5v131.4c0,19.3,6.6,35.8,19.7,49.5
			c13.2,13.7,29.1,20.5,47.8,20.5c18.8,0,34.9-7,48.3-21.1L17523.7-2546.4z"/>
		<path id="Path_1658" fill="#242727" d="M17350.4-2631.9v-11.4h-30.5v139.7h30.4v-69.6h0.1v-0.1c-0.2-10.2,3.7-20,10.8-27.3
			c6.7-7.3,16.1-11.3,25.9-11.2c5.9-0.1,11.7,1.3,16.9,4.1l22-22.8c-11.2-8.4-24.9-12.9-38.9-12.7
			C17374-2643.3,17361.2-2639.4,17350.4-2631.9"/>
	</g>
	<g id="Group_697" transform="translate(8.763 258.078)">
		<circle id="Ellipse_28" fill="#379E4D" cx="16875.6" cy="-2495.1" r="12.1"/>
		<circle id="Ellipse_29" fill="#379E4D" cx="16952.2" cy="-2495.1" r="12.1"/>
		<path id="Path_1659" fill="#379E4D" d="M16988-2587.2l-11.8,59.3c-0.8,3.8-4.1,6.6-8,6.6l-107.7,0.6c-4,0-7.5-2.9-8.1-6.9
			l-10.2-64.9c-0.1-0.5-0.1-1.1-0.1-1.6l-14.5-14.5c-3.6-3.6-4.1-9-1.1-12c1.3-1.3,3.1-2,5-2c2.4,0.1,4.7,1,6.4,2.6l21,18.4
			l121.2,4.6c4.5,0.2,8,4,7.9,8.5C16988.1-2588.1,16988.1-2587.7,16988-2587.2z"/>
		<path id="Path_1660" fill="#379E4D" d="M16911.1-2705c-81,0-146.9,65.9-146.9,146.9s65.9,146.9,146.9,146.9
			s146.9-65.9,146.9-146.9C17058-2639.1,16992.1-2705,16911.1-2705z M16911.1-2422.8c-74.7,0-135.2-60.6-135.2-135.2
			c0-74.7,60.6-135.2,135.2-135.2c74.7,0,135.2,60.6,135.2,135.2C17046.4-2483.4,16985.8-2422.8,16911.1-2422.8L16911.1-2422.8z"/>
	</g>
</g>
</svg>
