<svg xmlns="http://www.w3.org/2000/svg" viewBox="0 0 200 200">
  <defs>
    <linearGradient id="aliGrad" x1="0%" y1="0%" x2="100%" y2="100%">
      <stop offset="0%" style="stop-color:#FF6A00"/>
      <stop offset="100%" style="stop-color:#FF4500"/>
    </linearGradient>
  </defs>
  <rect width="200" height="200" rx="40" fill="url(#aliGrad)"/>
  <path d="M100 40 C60 40 40 70 40 100 C40 130 60 160 100 160 C120 160 135 150 145 135 L125 120 C118 130 110 135 100 135 C80 135 65 120 65 100 C65 80 80 65 100 65 C110 65 118 70 125 80 L145 65 C135 50 120 40 100 40Z" fill="white"/>
  <circle cx="100" cy="100" r="15" fill="white"/>
</svg>