<?xml version="1.0" encoding="utf-8"?>
<!-- Generator: Adobe Illustrator 22.1.0, SVG Export Plug-In . SVG Version: 6.00 Build 0)  -->
<svg version="1.1" id="Layer_1" xmlns="http://www.w3.org/2000/svg" xmlns:xlink="http://www.w3.org/1999/xlink" x="0px" y="0px"
	 viewBox="0 0 166 42" enable-background="new 0 0 166 42" xml:space="preserve">
<g>
	<path fill="#0087CD" d="M41.6,31.3c0,5.7-4.6,10.3-10.3,10.3H10.8C5.1,41.5,0.5,37,0.5,31.3V10.8c0-5.7,4.6-10.3,10.3-10.3h20.5
		c5.7,0,10.3,4.6,10.3,10.3V31.3z"/>
	<g transform="translate(5 8)">
		<path fill="#FFFFFF" d="M27.4,16c1-3.1,2.8-9.9,3.4-12.4c0.5-2.1,0.7-2.9-0.3-2.9c-0.8,0-3,0.9-3.5,2.6c-0.7,2.8-2.2,8.7-2.8,10.8
			c-0.7,2.3-2.1,2.8-4,2.8c-1.4,0-2.2-0.1-2.4-0.9c-0.1-0.3-0.3-0.4-0.5-0.4H15c-0.3,0-0.5,0.2-0.5,0.4c-0.2,0.9-1,0.9-2.4,0.9
			c-1.2,0-3-0.2-3.6-2.4C8,13.1,6.9,9.2,6.3,7.1S3.9,4.9,3,4.9c-1,0-1.1,0.2-0.5,2.2s2,6.6,2.9,9.6s3.8,4,5.7,4h3.2
			c0.9,0,1.4-0.2,1.7-0.4c0.2-0.2,0.5-0.2,0.7,0c0.3,0.2,0.9,0.5,1.8,0.5h3.1C24,20.6,26.4,19,27.4,16z"/>
		<circle fill="#FFFFFF" cx="11.3" cy="7.1" r="1.5"/>
		<circle fill="#FFFFFF" cx="16.2" cy="7.1" r="1.5"/>
		<circle fill="#FFFFFF" cx="21.2" cy="7.1" r="1.5"/>
		<circle fill="#FFFFFF" cx="11.3" cy="12.4" r="1.5"/>
		<circle fill="#FFFFFF" cx="16.2" cy="12.4" r="1.5"/>
		<circle fill="#FFFFFF" cx="21.2" cy="12.4" r="1.5"/>
		<path fill="#FFFFFF" d="M3.6,21.5c-1.7,0-3,1.4-3,3s1.4,3,3,3s3-1.4,3-3S5.2,21.5,3.6,21.5z M3.6,25.8c-0.6,0-1.1-0.5-1.1-1.1
			s0.5-1.1,1.1-1.1s1.1,0.5,1.1,1.1C4.6,25.3,4.2,25.8,3.6,25.8z M28.6,21.5c-1.7,0-3,1.4-3,3s1.4,3,3,3s3-1.4,3-3
			S30.3,21.5,28.6,21.5z M28.6,25.8c-0.6,0-1.1-0.5-1.1-1.1s0.5-1.1,1.1-1.1s1.1,0.5,1.1,1.1S29.2,25.8,28.6,25.8z"/>
	</g>
	<g transform="translate(53 3)">
		<path fill="#0087CD" d="M44.3,25c-0.7,0-1.6,0-1.9,0.6c-1.1,2-3.7,2.7-5.8,2.7c-4.2,0-7.4-3.4-7.4-7.7c0-4.2,3.2-7.7,7.4-7.7
			c1.9,0,4.3,0.4,5.8,2.6c0.4,0.6,1.2,0.5,2,0.5c1,0,0.8-1.2,0.4-1.9c-2.1-3.2-5.6-3.9-8.1-3.9c-5.7,0-10.4,4.7-10.4,10.4
			S31,31,36.7,31c3.7,0,6.9-1.6,8.3-4.2C45.1,26.1,45.4,25,44.3,25z M84.4,10.9c-0.7,0-1.4,0.3-1.4,1.1v17.4c0,0.7,0.6,1,1.4,1
			c0.7,0,1.4-0.2,1.4-1V11.9C85.7,11.1,85.1,10.8,84.4,10.9z"/>
		<circle fill="#0087CD" cx="84.4" cy="5" r="2"/>
		<path fill="#0087CD" d="M110.5,0.7c-0.7,0-0.7,0.3-0.7,1v12c-1.5-2.5-4.5-3.4-7.1-3.4c-5.7,0-10.4,4.6-10.4,10.4
			c0,5.7,4.6,10.4,10.4,10.4c2.2,0,5.7-1.1,7.1-3.6v1.7c0,0.7-0.1,1,0.7,1c0.8,0,2-1,2-3.3V3.5C112.5,1.4,111.3,0.7,110.5,0.7z
			 M109.8,21.1c0,5.4-4.9,7.2-7.1,7.2c-4.2,0-7.4-3.4-7.4-7.7s3.2-7.7,7.4-7.7c2.5,0,7.1,1.5,7.1,7V21.1z M75.7,10.9
			c-0.1,0-1.4,0-1.7,1c-0.4,0.9-2.3,6.9-4.5,13.2c-0.1,0.2-0.2,0.4-0.2,0.6l-4.6-11.3c-0.2-0.5-0.5-0.9-0.9-1.1
			c-0.2-0.1-0.5-0.2-0.8-0.2s-0.6,0.1-0.8,0.2c-0.4,0.2-0.7,0.6-0.9,1.1l-4.6,11.3c-0.1-0.2-0.2-0.4-0.2-0.6
			c-2.3-6.3-4.2-12.3-4.5-13.2c-0.4-1-1.7-1-1.7-1c-0.7,0-1,0.2-0.9,0.6v0.3c0.1,0.4,2.9,9.9,6,17.4c0.2,0.5,0.5,1.2,1.4,1.2
			c0.6,0,1-0.4,1.2-0.8l4.9-12.2c0.1-0.1,0.2-0.2,0.3-0.2s0.2,0.1,0.3,0.2l4.9,12.2c0.2,0.4,0.6,0.8,1.2,0.8c0.9,0,1.2-0.7,1.4-1.2
			c3-7.4,5.9-17,6-17.4v-0.3C76.6,11.2,76.3,11,75.7,10.9z M11,10.3c-5.7,0-10.6,4.7-10.6,10.4S5.2,31,11,31c3.7,0,7.1-1.6,8.5-4.2
			c0.4-0.7,0.6-1.8-0.5-1.8c-0.7,0-1.6,0-1.9,0.6c-1.1,2-4,2.7-6.1,2.7c-3.8,0-6.9-2.8-7.5-6.4h16.8c0.7,0,1.3-0.6,1.3-1.4
			C21.6,14.8,16.6,10.3,11,10.3z M3.5,19.3c0.6-3.6,3.8-6.3,7.6-6.3c3.6,0,6.9,2.6,7.5,6.3H3.5z"/>
	</g>
</g>
</svg>
