<?xml version="1.0" encoding="utf-8"?>
<!-- Generator: Adobe Illustrator 22.1.0, SVG Export Plug-In . SVG Version: 6.00 Build 0)  -->
<svg version="1.1" id="Layer_1" focusable="false" xmlns="http://www.w3.org/2000/svg" xmlns:xlink="http://www.w3.org/1999/xlink"
	 x="0px" y="0px" viewBox="0 0 177 97.7" enable-background="new 0 0 177 97.7" xml:space="preserve">
<path fill="#F45800" d="M20.4,14v23.3c0,0,8.2,0,12.6-0.3c3.5-0.6,4.1-0.9,4.7-4.4l1.3-5.1h3.8l-0.6,11.1l0.3,11.3h-3.8l-0.9-4.4
	c-0.9-3.2-2.2-3.8-4.7-4.1c-3.2-0.3-12.6-0.3-12.6-0.3v19.6c0,3.8,1.9,5.4,6.3,5.4h13.3c4.1,0,8.2-0.3,10.7-6.3l3.4-7.6h3.2
	c-0.3,1.6-1.9,15.5-2.2,18.6c0,0-12-0.3-17-0.3H15.3L1.8,70.7v-3.4l4.4-1c3.2-0.6,4.1-1.6,4.1-4.1c0,0,0.3-8.5,0.3-22.7
	c0-14.2-0.3-22.7-0.3-22.7c0-2.8-0.9-3.5-4.1-4.1l-4.4-0.9V8.3L15,8.6h25.2c5,0,13.5-0.9,13.5-0.9s-0.3,5.3-0.6,18h-3.5l-1.3-4.4
	c-1.2-5.7-3.1-8.5-6.6-8.5H22C20.4,12.7,20.4,13,20.4,14z M71.4,16.5h3.8v13.3l13-0.6l-0.6,6l-12.6-1v23.4c0,6.6,2.2,9.2,6,9.2
	c3.4,0,6-1.9,6.9-3.5l1.9,2.2c-1.9,4.4-7.2,6.6-12.3,6.6c-6.3,0-11.4-3.8-11.4-11V34.5h-7.5v-3.2C64.9,30.7,69.6,26.9,71.4,16.5z
	 M98.6,57.2l2.5,6c0.9,2.5,3.2,5.1,8.2,5.1c5.4,0,7.6-2.9,7.6-6.3c0-10.7-21.1-7.6-21.1-22.1c0-8.2,6.6-12,15.1-12
	c3.8,0,9.5,0.6,12.3,1.9c-0.6,3.2-1,7.3-1,10.4l-3.1,0.3l-2.2-6.3c-0.6-1.5-3.2-2.8-6.3-2.8c-3.8,0-7.6,1.6-7.6,5.7
	c0,9.8,21.8,7.6,21.8,22.1c0,8.2-7.3,12.6-16.1,12.6c-6.6,0-13.3-2.5-13.3-2.5c0.6-3.8,0.3-7.9,0-12C95.4,57.2,98.6,57.2,98.6,57.2z
	 M123.2,87.4c0.9-3.5,1.6-7.9,2.2-12l3.5-0.3l1.3,6.6c0.3,1.6,1.2,2.9,3.8,2.9c4.1,0,9.5-2.5,14.5-11.3c-2.2-5.4-8.9-22.7-14.9-36
	c-1.6-3.5-1.9-3.8-4.1-4.4l-1.6-0.6v-3.2l9.5,0.3l11.7-0.6V32l-2.9,0.6c-2.2,0.3-3.1,1.5-3.1,2.8c0,0.3,0,0.6,0.3,1.3
	c0.6,1.9,5.7,16.1,9.5,25.5c3.1-6.6,9.1-21.4,10.1-24c0.3-1.3,0.6-1.6,0.6-2.5c0-1.6-0.9-2.5-3.1-3.2l-2.2-0.6v-3.2l8.9,0.3l8.2-0.3
	V32l-1.6,1.2c-3.2,1.3-3.5,1.6-4.7,4.1l-13.9,32.5C146.8,88.4,138.3,90,132.3,90C128.5,90,125.7,89,123.2,87.4z"/>
</svg>
