<?xml version="1.0" encoding="utf-8"?>
<!-- Generator: Adobe Illustrator 22.1.0, SVG Export Plug-In . SVG Version: 6.00 Build 0)  -->
<svg version="1.1" id="Layer_1" xmlns:serif="http://www.serif.com/"
	 xmlns="http://www.w3.org/2000/svg" xmlns:xlink="http://www.w3.org/1999/xlink" x="0px" y="0px" viewBox="0 0 499.7 97"
	 enable-background="new 0 0 499.7 97" xml:space="preserve">
<g transform="matrix(0.16,0,0,0.159836,0,0)">
	
		<linearGradient id="SVGID_1_" gradientUnits="userSpaceOnUse" x1="-88.5593" y1="-10928.833" x2="-87.5593" y2="-10928.833" gradientTransform="matrix(7.528863e-16 -12.2956 12.2704 7.513437e-16 135662.25 -608.5684)">
		<stop  offset="0" style="stop-color:#04B6F0"/>
		<stop  offset="1" style="stop-color:#3ECAF0"/>
	</linearGradient>
	<path fill="url(#SVGID_1_)" d="M309.6,316.5c0,46.7-13.9,85.9-41.7,117.8c-29.1,33.3-66.8,50.1-113,50.1c-46.3,0-84-16.7-113-50.1
		C14,402.5,0,363.2,0,316.5c0-46.8,14-86.1,41.8-117.8c29.4-33,67.1-49.5,113-49.5c46.2,0,84,16.5,113,49.5
		C295.7,230.5,309.6,269.8,309.6,316.5z M217.6,316.5c0-21.1-5.1-39-15.2-53.4c-11.3-16.4-27.2-24.5-47.5-24.5
		c-20.4,0-36.2,8.1-47.6,24.5C97.1,277.6,92,295.4,92,316.5c0,21,5.1,39.1,15.3,53.9c11.3,16.4,27.2,24.5,47.6,24.5
		s36.2-8.2,47.5-24.5C212.5,355.6,217.6,337.6,217.6,316.5z M642.3,316.5c0,43.6-12.5,81.7-37.8,114.2c-27,35.7-61.7,53.6-104,53.6
		c-29.8,0-55.1-8.7-75.8-25.9c0,4,0.4,13.5,1.3,28.8c0.9,15.4,1.3,27.9,1.3,37.8c0,54.7-16.3,82-48.9,82c-13.3,0-24.2-4.7-32.9-14.1
		c-8.6-9.5-12.9-20.8-12.9-34.2V203.1c0-13,4.4-24.2,13.2-33.7c8.8-9.4,19.7-14.1,32.7-14.1c19.6,0,33.9,9.8,42.9,29.3
		c19.3-23.6,45.6-35.3,78.9-35.3c42.4,0,77,17.6,104.1,52.9C629.6,234.9,642.3,273,642.3,316.5z M550.3,316.5
		c0-21.1-5.2-39-15.3-53.4c-11.3-16.4-27.2-24.5-47.5-24.5c-20.4,0-36.2,8.1-47.5,24.5c-10.1,14.4-15.2,32.3-15.2,53.4
		c0,21,5.1,39.1,15.2,53.9c11.3,16.4,27.2,24.5,47.5,24.5c20.4,0,36.2-8.2,47.5-24.5C545.1,355.6,550.3,337.6,550.3,316.5z
		 M977,306.6c0,15.4-3.6,26-10.9,31.9c-7.3,5.8-18.6,8.8-33.9,8.8h-166c0,17.6,8.3,31.1,24.8,40.6c13.3,7.4,29.6,11.1,48.9,11.1
		c15,0,32.9-5,53.9-14.8c21-9.9,34.6-14.8,40.4-14.8c10.7,0,19.7,3.9,27.2,11.8c7.4,7.8,11.1,17.3,11.1,28.2
		c0,25.2-18.8,44.8-56.5,58.9c-28.7,10.6-57.9,16-87.7,16c-48,0-86.7-16-116.3-47.8s-44.5-71.8-44.5-120.1
		c0-46,15.4-85.3,46.2-118.1c30.7-32.8,68.9-49.2,114.5-49.2c42.4,0,77.8,15.5,106.2,46.5C962.7,226.9,977,263.8,977,306.6z
		 M885,283.5c-0.4-14.1-6.9-26.9-19.5-38.4c-12.5-11.5-25.9-17.3-40-17.3c-14.5,0-28.1,5.7-40.6,17.3
		c-12.5,11.6-18.8,24.3-18.8,38.4H885z M1286.2,430c0,13.4-4.3,24.8-12.9,34.2c-8.7,9.4-19.6,14.1-32.9,14.1
		c-32.1,0-48.2-25.5-48.2-76.5c0-9.8,0.7-25.2,2-46.4c1.4-21.1,2.1-36.6,2.1-46.4c0-54-17.5-81.1-52.4-81.1s-52.3,27.1-52.3,81.1
		c0,9.8,0.5,25.3,1.5,46.4c1.1,21.2,1.7,36.6,1.7,46.4c0,51-15.8,76.5-47.5,76.5c-13.3,0-24.2-4.7-32.8-14.1
		c-8.7-9.5-13-20.8-13-34.2V203c0-13.3,4.3-24.7,13-33.8c8.6-9.2,19.6-13.9,32.9-13.9c22,0,37.3,9.8,45.9,29.3
		c14.9-23.6,41.2-35.3,78.8-35.3c34.9,0,62.6,9.2,83,27.6c20.8,19.7,31.1,46.8,31.1,81.2L1286.2,430L1286.2,430z M1574.8,420.2
		c0,20.8-13.5,37.3-40.6,49.4c-21.5,9.8-44.8,14.8-68.3,14.7c-46.3,0-84-16.7-113-50.1c-27.9-31.7-41.8-71-41.8-117.7
		c0-46.8,14.2-86.3,42.7-118.6c28.5-32.5,65.8-48.6,112.2-48.6c26.7,0,49.7,4,68.9,11.8c26.7,10.6,40,27.1,40,49.5
		c0,11.3-3.5,21.3-10.6,30c-7,8.6-16.1,13-27.1,13c-7.5,0-18.3-2.5-32.4-7.5c-14.1-5.1-25.3-7.5-33.6-7.5c-21.9,0-39,7.8-51.2,23.4
		c-11.3,14.1-17.1,32.1-17.1,54.5c0,21,5.1,38.8,15.3,53.3c11.3,16.8,27.3,25.2,47.6,25.2c9,0,21.3-2.6,37.1-8
		c15.8-5.3,27.1-8,34.1-8c10.2,0,19,4.4,26.5,13C1571.1,400.6,1574.8,410,1574.8,420.2z M1909.3,430c0,13.4-4.3,24.8-12.9,34.2
		c-8.7,9.4-19.7,14.1-33,14.1c-20,0-34.3-9.8-42.9-29.3c-19.3,23.6-45.6,35.3-78.9,35.3c-42.7,0-77.7-17.9-104.8-53.6
		c-24.7-32.6-37.1-70.7-37.1-114.2c0-43.6,12.4-81.7,37.1-114.3c27.5-35.3,62.4-52.9,104.8-52.9c33.3,0,59.6,11.8,78.9,35.3
		c8.6-19.5,22.9-29.3,42.9-29.3c13,0,23.9,4.7,32.7,14.1c8.8,9.5,13.2,20.6,13.2,33.6L1909.3,430L1909.3,430z M1817.3,316.5
		c0-21.1-5.1-39-15.2-53.4c-11.8-16.4-27.6-24.5-47.5-24.5c-20.4,0-36.2,8.1-47.6,24.5c-10.2,14.4-15.3,32.3-15.3,53.4
		c0,21,4.9,39.1,14.7,53.9c11.7,16.4,27.8,24.5,48.1,24.5c20.3,0,36.2-8.2,47.5-24.5C1812.2,355.6,1817.3,337.6,1817.3,316.5z
		 M2144,196.9c0,19.7-9.6,33.2-28.7,40.6c-17.7,6-35.3,12-52.9,18.3c-19.3,11-28.8,31.5-28.8,61.2v113c0,13.4-4.4,24.8-13,34.2
		c-8.7,9.4-19.7,14.1-33,14.1c-13.4,0-24.4-4.7-33-14.1c-8.7-9.5-13-20.8-13-34.2V203c0-13.3,4.3-24.7,12.9-33.8
		c8.7-9.2,19.7-13.9,33-13.9c22,0,37.3,9.8,45.9,29.3c19.7-23.6,40.8-35.3,63.6-35.3c13,0,24.1,4.7,33.3,14.1
		C2139.4,172.8,2144,184,2144,196.9z M2384.1,201.1c0,20.5-8,33.3-24,38.9c-7.8,2.7-24.3,4.2-49.2,4.2v185.9
		c0,13.4-4.4,24.8-13,34.2c-8.7,9.4-19.7,14.1-33,14.1c-13,0-24-4.7-32.8-14.1c-8.8-9.5-13.2-20.8-13.2-34.2v-186
		c-18.9,0-32.7-2.4-41.4-7.1c-11.9-6.6-17.8-18.6-17.8-35.9s6.1-29,18.3-35.3c8.3-4.6,21.9-7,40.8-7v-39.4c0-46.3,15.3-69.4,46-69.4
		c30.6,0,46,23.1,46,69.4v39.4c25,0,41.4,1.4,49.2,4.2C2376,168.4,2384.1,181.2,2384.1,201.1z M3123.2,145.2
		c-0.3-28.2-52.4-41.1-187.6-41.1c-317,0-397.5-13.5-483.6-104.1c36.2,54.4,56,156.4,391.1,151.3c349.6-5.4,136.3,90.2,74.3,198.1
		c111.9-99.9,205.4-165.7,205.7-203.8v-0.4H3123.2z M2677.7,435.3c0,26.3-21.6,47.9-47.9,47.9c-26.5,0-48-21.4-48-47.9l0,0
		c0-26.3,21.6-47.9,48-47.9l0,0C2656.2,387.3,2677.7,408.8,2677.7,435.3z M2896,435.3c0,26.3-21.6,47.9-47.9,47.9
		c-26.5,0-48-21.4-48-47.9l0,0c0-26.3,21.6-47.9,47.9-47.9l0,0C2874.6,387.3,2896,408.8,2896,435.3z"/>
</g>
</svg>
