<?xml version="1.0" encoding="utf-8"?>
<!-- Generator: Adobe Illustrator 22.1.0, SVG Export Plug-In . SVG Version: 6.00 Build 0)  -->
<svg version="1.1" id="layer" xmlns="http://www.w3.org/2000/svg" xmlns:xlink="http://www.w3.org/1999/xlink" x="0px" y="0px"
	 viewBox="0 0 600 98.1" enable-background="new 0 0 600 98.1" xml:space="preserve">
<g id="presta">
	<g id="_Gruppe_">
		<g id="_Gruppe_2">
			<path id="_Zusammengesetzter_Pfad_" fill="#281143" d="M217.9,58.6c-0.1-0.6-0.1-1.1-0.1-1.7c0-4.9,1.6-8.8,4.9-11.6
				c3-2.7,6.9-4.1,10.9-4.1c5.2,0,8.9,1.9,10.9,5.9L217.9,58.6z M256,51.5c0.1-5.5-2.3-10.7-6.6-14.2c-4.3-3.6-9.8-5.5-16.3-5.5
				c-4.1,0-8.2,0.9-11.8,2.8c-3.8,2-7.1,4.9-9.4,8.6c-2.6,4-3.9,8.7-3.8,13.5c0,7.4,2.4,13.3,7.3,17.8c4.7,4.4,11,6.9,17.5,6.8
				c7.8,0,14.5-3,20.2-8.9l-5.9-6.6c-3.2,4.1-8.1,6.4-13.3,6.3c-5.4,0-9.6-1.9-12.8-5.7L256,51.7V51.5z"/>
			<path id="_Pfad_" fill="#281143" d="M196.5,34.9c-2.8,1.9-5.1,4.5-6.7,7.4v-9.7h-10v47.9h10.1V60c0-5.5,1.3-9.8,3.8-13.1
				s6.2-4.9,11.2-4.9h0.5V31.9C202.2,32,199.1,33,196.5,34.9"/>
			<path id="_Pfad_2" fill="#281143" d="M292.2,56.2c-1.4-1-3-1.8-4.6-2.5c-1.4-0.6-2.9-1.2-4.4-1.6c-1.5-0.5-3.2-0.9-5.1-1.4
				c-1.6-0.4-3.1-0.9-4.6-1.5c-1.5-0.5-2.4-1.9-2.4-3.5c-0.1-1.6,0.8-3.2,2.3-3.9c1.8-0.9,3.8-1.3,5.8-1.3c4.6,0,9,1.3,12.8,3.9
				l3.8-7.5c-4.6-3.2-10.1-4.9-15.7-4.9s-10,1.3-13.5,4.1c-3.4,2.5-5.3,6.5-5.1,10.7c0,6.3,5,10.8,14.9,13.5
				c0.2,0.1,0.6,0.2,1.1,0.3c6.3,1.9,9.5,4.1,9.5,6.5c0,1.6-0.7,3.1-1.9,4c-1.6,1.1-3.5,1.7-5.4,1.6c-5.2,0-10.6-2.1-16.2-6.3
				l-4.9,7.9c3,2.3,6.4,4.1,10,5.3c3.5,1.2,7.2,1.8,10.9,1.9c5.2,0,9.4-1.4,12.8-4.1c3.3-2.7,5.1-6.7,5-11
				C297,61.6,295.4,58.3,292.2,56.2"/>
			<path id="_Zusammengesetzter_Pfad_2" fill="#281143" d="M158.6,49.1c-2.1,2.3-6.2,3.4-12.1,3.4h-12.3V27.3H145
				c5.7,0,10,0.9,12.8,2.7c2.7,1.8,4.1,4.9,4.1,9.2C161.8,43.4,160.7,46.8,158.6,49.1 M166.1,23.1c-4.4-3.6-11.4-5.5-20.9-5.5h-21.7
				v63h10.7V62h11.2c9.3,0,16.1-1.8,20.6-5.3c4.5-3.6,6.8-9.1,6.8-16.8C172.7,32.3,170.5,26.7,166.1,23.1"/>
			<path id="_Pfad_3" fill="#281143" d="M320.6,72.5c-1.9,0.1-3.8-0.6-5.1-2c-1.2-1.5-1.9-3.5-1.8-5.5V40.7h12.7v-8.1h-12.7v-15
				h-10.1v47.3c0,5.1,1.5,9,4.6,12.1c2.9,2.9,6.9,4.5,11,4.5c4.3,0,8.2-1.6,11.7-4.8l-4.1-7.1C324.9,71.5,322.8,72.5,320.6,72.5"/>
			<path id="_Zusammengesetzter_Pfad_3" fill="#281143" d="M366.9,67.9c-2.6,2.9-6.3,4.5-10.1,4.4c-3.9,0-7.6-1.5-10.4-4.3
				c-3-2.9-4.4-6.7-4.4-11.2c-0.1-4.2,1.4-8.4,4.3-11.5c2.6-2.9,6.4-4.6,10.4-4.6c3.9-0.1,7.6,1.6,10.2,4.6c2.8,3,4.1,6.9,4.1,11.5
				C371.1,60.9,369.6,64.9,366.9,67.9 M370.9,40.9c-4.1-6-9.3-9-15.6-9c-6.1-0.1-12.1,2.3-16.4,6.7c-4.6,4.5-6.9,10.4-6.9,17.8
				s2.3,13.5,6.8,18.1c4.1,4.4,9.9,6.9,15.9,6.8c3.1,0,6.2-0.8,9-2.2c2.9-1.5,5.5-3.6,7.3-6.3v7.9h10.1V32.8h-10.2L370.9,40.9z"/>
			<path id="_Zusammengesetzter_Pfad_4" fill="#DF1668" d="M530.5,67.9c-6.1,5.9-15.7,5.9-21.8,0c-2.9-3-4.3-6.7-4.3-11.3
				s1.4-8.4,4.3-11.3c6.1-5.9,15.7-5.9,21.8,0c2.9,3,4.3,6.7,4.3,11.3S533.4,65,530.5,67.9 M519.7,31.9c-7.2,0-13.3,2.4-18.1,7.2
				c-9.6,9.7-9.6,25.4,0,35.1c4.8,4.8,10.8,7.2,18.1,7.2s13.2-2.4,18.1-7.2c9.6-9.7,9.6-25.4,0-35.1
				C532.9,34.3,526.9,31.9,519.7,31.9"/>
			<path id="_Zusammengesetzter_Pfad_5" fill="#DF1668" d="M585.4,67.9c-2.7,2.8-6.5,4.3-10.4,4.3c-3.9,0.1-7.5-1.5-10.1-4.4
				c-2.8-3-4.1-6.7-4.1-11.2s1.3-8.4,4.1-11.4c2.6-2.9,6.3-4.6,10.2-4.6c4,0,7.7,1.6,10.4,4.6c2.9,3.1,4.5,7.3,4.3,11.5
				C589.8,61.3,588.3,65.1,585.4,67.9 M593.1,38.6c-4.4-4.4-10.3-6.8-16.5-6.7c-6.4,0-11.6,3-15.6,9.1v-8.3h-10.1v65.4H561V73.4
				c4.8,5.3,10.2,7.9,16.3,7.9s11.3-2.3,15.9-6.9c4.6-4.6,6.8-10.6,6.8-18.1S597.6,43,593.1,38.6"/>
			<path id="_Pfad_4" fill="#DF1668" d="M470.9,31.9c-3.3,0-6.6,0.9-9.4,2.5s-5.1,4-6.5,6.9V13.7h-10.1v66.8H455V54.6
				c0-4.5,1.3-7.9,3.9-10.1c2.5-2.3,5.8-3.5,9.1-3.5c7.3,0,11,4.4,11,13.3v26.3h10.1V51.1c0-6.2-1.7-11.1-5-14.4
				C480.8,33.5,476.3,31.9,470.9,31.9"/>
			<path id="_Pfad_5" fill="#DF1668" d="M432.8,50.2c-3.3-2.8-8.1-5-14.6-6.6s-10.7-3-12.7-4.4c-1.9-1.3-3-3.5-3-5.8
				c-0.1-2.3,1-4.5,3-5.7c2.3-1.3,4.9-2,7.6-1.9c3.2,0,6.4,0.5,9.4,1.6c2.8,0.9,5.4,2.3,7.6,4.1l5.7-8c-3-2.5-6.5-4.4-10.3-5.6
				c-3.9-1.3-7.9-2-12-1.9c-6.2,0-11.5,1.6-15.7,4.7c-4.2,3.1-6.3,7.7-6.3,13.5s1.9,10.1,5.6,13c1.9,1.5,4.1,2.8,6.4,3.6
				c3.4,1.2,7,2.3,10.6,3c4.6,1.1,7.8,2.4,9.8,3.7c1.9,1.3,2.9,3.4,2.9,5.7c0.1,2.3-1.1,4.5-3,5.8c-2,1.4-4.7,2.2-8.2,2.2
				c-6.8,0-13.4-2.8-19.8-8.3l-6.7,8c7.6,6.8,16.4,10.2,26.2,10.2c6.8,0,12.2-1.7,16.3-5.1c4-3.2,6.3-8.2,6.2-13.4
				C437.7,57.1,436,53.2,432.8,50.2"/>
		</g>
		<path id="_Pfad_6" fill="#B2DEEB" d="M31.7,75.2c0.8-0.3,1.6-0.7,2.4-0.9c0.9-0.3,1.8-0.7,2.7-0.9c1.2-0.3,2.3-0.7,3.5-0.9
			c1.6-0.3,3.2-0.6,4.8-0.8c-0.9,2.9-1.9,5.7-3,8.5c0.1,0.5,0.1,1.1,0.1,1.6c4.5-0.9,9-0.9,13.5,0c0-0.5,0-1.1,0.1-1.6
			c-1.1-2.8-2.1-5.7-3-8.5c1.6,0.2,3.2,0.5,4.8,0.8c1.2,0.2,2.4,0.6,3.5,0.9c0.9,0.3,1.8,0.6,2.7,0.9c0.8,0.3,1.6,0.6,2.4,0.9
			c5.7,2.5,10.7,6.2,14.8,10.9c20.5-17.7,22.7-48.6,5.1-69.1S37.5-5.7,17,11.9S-5.7,60.5,11.9,81c1.6,1.8,3.3,3.5,5.1,5.1
			C21.1,81.5,26.1,77.8,31.7,75.2z"/>
		<path id="_Pfad_7" fill="#5C5A58" d="M35,84.1c2.3-1,4.8-1.8,7.3-2.3c0-0.5,0-1.1-0.1-1.6c1.1-2.8,2.1-5.7,3-8.5
			c-1.6,0.2-3.2,0.5-4.8,0.8c-1.2,0.2-2.4,0.6-3.5,0.9c-0.9,0.3-1.8,0.6-2.7,0.9l3.6,0.8L35,84.1z"/>
		<path id="_Pfad_8" fill="#5C5A58" d="M26.6,89.4c0.1-0.9,0.2-1.9,0.2-2.8c0-0.5,0.4-1,0.9-1c0,0,0,0,0.1,0h0.9l3.1-10.4
			c-5.7,2.5-10.7,6.2-14.8,10.9c2.3,2,4.8,3.7,7.4,5.2C25.1,90.6,25.8,90,26.6,89.4z"/>
		<path id="_Pfad_9" fill="#5C5A58" d="M66.2,75.2l3.1,10.4h0.9c0.5,0,1,0.4,1,0.9c0,0,0,0,0,0.1c0,0.9,0.1,1.9,0.2,2.8
			c0.8,0.7,1.5,1.4,2.2,2c2.6-1.5,5.1-3.3,7.4-5.2C77,81.5,71.9,77.8,66.2,75.2z"/>
		<path id="_Pfad_10" fill="#5C5A58" d="M60.3,75.1l3.5-0.8c-0.9-0.3-1.8-0.7-2.7-0.9c-1.2-0.3-2.3-0.7-3.5-0.9
			c-1.6-0.3-3.2-0.6-4.8-0.8c0.9,2.9,1.9,5.7,3,8.5c-0.1,0.5-0.1,1.1-0.1,1.6c2.5,0.5,4.9,1.2,7.3,2.3L60.3,75.1z"/>
		<path id="_Pfad_11" fill="#010101" d="M48.9,85.6h6.9c-0.1-1.3-0.2-2.5-0.2-3.8c-4.5-0.9-9-0.9-13.5,0c0,1.3,0,2.5-0.2,3.8H48.9z"
			/>
		<path id="_Pfad_12" fill="#010101" d="M24.4,91.4c0.6,0.3,1.2,0.7,1.7,0.9c0.2-1,0.3-1.9,0.4-3C25.7,90,25,90.7,24.4,91.4z"/>
		<path id="_Pfad_13" fill="#010101" d="M34.5,85.6h7.6c0.1-1.3,0.2-2.5,0.2-3.8c-2.5,0.5-4.9,1.2-7.3,2.3L34.5,85.6z"/>
		<path id="_Pfad_14" fill="#010101" d="M71.4,89.4c0.1,1,0.2,2,0.4,3c0.6-0.3,1.2-0.6,1.7-0.9C72.9,90.7,72.2,90,71.4,89.4z"/>
		<path id="_Pfad_15" fill="#010101" d="M63.5,85.6l-0.4-1.5c-2.3-1-4.8-1.8-7.3-2.3c0,1.3,0,2.5,0.2,3.8H63.5z"/>
		<path id="_Pfad_16" fill="#B29975" d="M34.5,85.6l0.4-1.5l2.7-9l-3.5-0.8c-0.8,0.3-1.6,0.6-2.4,0.9l-3.1,10.4H34.5L34.5,85.6z"/>
		<path id="_Pfad_17" fill="#B29975" d="M62.9,84.1l0.4,1.5h5.9l-3.1-10.4c-0.8-0.3-1.6-0.7-2.4-0.9l-3.5,0.8L62.9,84.1z"/>
		<path id="_Pfad_19" fill="#C9B79E" d="M48.9,87.6H28.8l-0.1,0.1c-0.1,1.9-0.4,3.8-0.8,5.7c6.6,3.1,13.7,4.7,21,4.7V87.6L48.9,87.6
			z"/>
		<path id="_Pfad_20" fill="#B29975" d="M69.3,87.6L69.3,87.6C69.2,87.6,69.2,87.7,69.3,87.6z"/>
		<path id="_Pfad_21" fill="#B29975" d="M69.2,87.6H49.1V98c7.3,0,14.5-1.6,21-4.7C69.7,91.4,69.4,89.5,69.2,87.6
			C69.2,87.7,69.2,87.6,69.2,87.6z"/>
		<path id="_Pfad_22" fill="#967C64" d="M71.4,89.4c-0.1-0.9-0.2-1.9-0.2-2.8c0-0.5-0.4-1-0.9-1h-0.1H27.5c-0.5,0-1,0.4-1,0.9
			c0,0,0,0,0,0.1c0,0.9-0.1,1.9-0.2,2.8s-0.3,2-0.4,3c0.6,0.3,1.2,0.6,1.9,0.9c0.4-1.9,0.7-3.8,0.8-5.7v-0.1h40.3v0.1
			c0.1,1.9,0.3,3.8,0.8,5.7c0.6-0.3,1.3-0.6,1.9-0.9C71.6,91.4,71.5,90.4,71.4,89.4z"/>
		<g id="_Gruppe_3">
			<path id="_Pfad_23" fill="none" d="M65.5,41.6L65.5,41.6c0.7,1.8,1.3,3.6,1.7,5.4v0.4c0,0.2-0.1,0.3-0.1,0.5
				c0.1-0.2,0.1-0.5,0.2-0.8C66.7,45.2,66.2,43.4,65.5,41.6z"/>
			<path id="_Pfad_25" fill="none" d="M63.9,40.3c-1.1-1-2.3-1.8-3.5-2.6l0,0C61.6,38.5,62.8,39.4,63.9,40.3z"/>
			<path id="_Pfad_27" fill="none" d="M67,48c0,0.2-0.1,0.3-0.1,0.4C66.9,48.3,66.9,48.1,67,48z"/>
			<path id="_Pfad_28" fill="none" d="M62.2,65.9c-0.7,1.1-1.2,2.3-1.5,3.5C61,68.2,61.5,67,62.2,65.9c0.2-0.4,0.5-0.8,0.8-1.2
				C62.7,65.1,62.4,65.5,62.2,65.9z"/>
			<path id="_Pfad_29" fill="none" d="M65.5,41.6c0.1-0.1,0.1-0.2,0.2-0.3l0,0C65.6,41.4,65.5,41.5,65.5,41.6
				c0.3,0.3,0.6,0.5,0.8,0.8C66.1,42.1,65.7,41.9,65.5,41.6z"/>
			<path id="_Pfad_30" fill="none" d="M58.7,36.7c-0.1,0-0.1-0.1-0.2-0.1C58.6,36.7,58.6,36.7,58.7,36.7z"/>
			<path id="_Pfad_31" fill="none" d="M59,36.9c0,0-0.1-0.1-0.2-0.1C58.9,36.8,58.9,36.9,59,36.9z"/>
			<path id="_Pfad_32" fill="none" d="M79.4,57.3c0.1,0.1,0.1,0.2,0.2,0.3C79.6,57.4,79.5,57.3,79.4,57.3z"/>
			<path id="_Pfad_33" fill="none" d="M60.6,42.4c0,0.5,0,1-0.1,1.5C60.5,43.4,60.5,42.9,60.6,42.4z"/>
			<path id="_Pfad_34" fill="none" d="M60.3,37.7c-0.2-0.1-0.7-0.3-1.1-0.6C59.6,37.3,60.1,37.6,60.3,37.7z"/>
			<path id="_Pfad_35" fill="none" d="M59.2,37.1C59.1,37,59,37,58.9,36.9C59,36.9,59.1,37,59.2,37.1z"/>
			<path id="_Pfad_36" fill="none" d="M73,49.3l0.2,0.2l0,0C73.1,49.5,73.1,49.4,73,49.3z"/>
			<path id="_Pfad_37" fill="none" d="M66.3,42.4c0.7,0.6,1.3,1.2,1.9,1.9C67.6,43.6,67,43,66.3,42.4z"/>
			<path id="_Pfad_38" fill="none" d="M79.1,46.1c0.1,0,0.2,0,0.3,0.1C79.3,46.2,79.2,46.1,79.1,46.1z"/>
			<path id="_Pfad_39" fill="none" d="M79.6,46.2c0.1,0,0.2,0.1,0.3,0.1C79.7,46.3,79.6,46.3,79.6,46.2z"/>
			<path id="_Pfad_42" fill="none" d="M78.7,46.2c0.1,0,0.2-0.1,0.3-0.1C79,46.1,78.9,46.2,78.7,46.2z"/>
			<path id="_Pfad_43" fill="none" d="M70,46l-0.9-0.9C69.4,45.4,69.7,45.7,70,46z"/>
			<path id="_Pfad_44" fill="none" d="M79.1,35.4L79.1,35.4V40l-1.8,8l0,0l0,0l1.8-8V35.4z"/>
			<path id="_Pfad_45" fill="none" d="M71.6,47.8l-0.5-0.5C71.3,47.4,71.5,47.6,71.6,47.8z"/>
			<path id="_Pfad_46" fill="none" d="M80.8,48c0,0.1,0.1,0.1,0.1,0.2l0,0C80.9,48.1,80.8,48.1,80.8,48z"/>
			<path id="_Pfad_47" fill="none" d="M78.4,46.4c0.1-0.1,0.2-0.1,0.3-0.1C78.5,46.3,78.4,46.3,78.4,46.4z"/>
			<path id="_Pfad_48" fill="none" d="M78,46.6l0.3-0.3L78,46.6z"/>
			<path id="_Pfad_49" fill="none" d="M80.9,50.8L80.9,50.8c-0.1,0.2-0.1,0.3-0.2,0.5C80.8,51.2,80.8,51,80.9,50.8z"/>
			<path id="_Pfad_50" fill="none" d="M21.2,48c0.1-0.1,0.2-0.2,0.2-0.3C21.4,47.8,21.3,47.9,21.2,48z"/>
			<path id="_Pfad_51" fill="none" d="M79.9,46.4l0.3,0.3C80.1,46.5,80,46.4,79.9,46.4z"/>
			<path id="_Pfad_52" fill="none" d="M22.6,45.9c0-0.1,0.1-0.1,0.1-0.2C22.7,45.8,22.6,45.9,22.6,45.9z"/>
			<path id="_Pfad_53" fill="none" d="M19,52l-0.3,0.5L19,52z"/>
			<path id="_Pfad_54" fill="none" d="M25.7,42.2l0.2-0.2C26,42.1,25.9,42.1,25.7,42.2z"/>
			<path id="_Pfad_55" fill="none" d="M24,44.2c0.1-0.1,0.2-0.2,0.3-0.3C24.2,43.9,24.1,44,24,44.2z"/>
			<path id="_Pfad_56" fill="none" d="M80.8,48L79,40L80.8,48z"/>
			<path id="_Pfad_58" fill="none" d="M50.9,54.1L50.9,54.1C50.8,54,50.9,54,50.9,54.1z"/>
			<path id="_Pfad_59" fill="none" d="M20.1,49.8c-0.1,0.2-0.3,0.4-0.3,0.6C19.9,50.2,20,50,20.1,49.8z"/>
			<path id="_Pfad_61" fill="none" d="M80.4,52c-0.1,0.1-0.1,0.2-0.2,0.2C80.3,52.1,80.4,52,80.4,52z"/>
			<path id="_Pfad_62" fill="none" d="M46.8,48.9L46.8,48.9C46.7,49,46.8,49,46.8,48.9z"/>
			<path id="_Pfad_63" fill="none" d="M80.7,51.5c-0.1,0.1-0.1,0.2-0.2,0.3C80.6,51.7,80.7,51.6,80.7,51.5z"/>
			<path id="_Pfad_64" fill="#5C5A58" d="M63,78.6c-0.2-0.2-0.3-0.4-0.4-0.6C62.7,78.2,62.8,78.5,63,78.6z"/>
			<path id="_Pfad_65" fill="#B29975" d="M64.1,79.7L64.1,79.7c-0.4-0.3-0.8-0.7-1.1-1.1l0,0C63.3,79,63.7,79.4,64.1,79.7z"/>
			<path id="_Pfad_66" fill="#C8C6C7" d="M81.6,38.2L81.6,38.2c-0.4-0.6-0.8-1.1-1.3-1.6l0,0c-0.2-0.2-0.4-0.4-0.6-0.6
				c-0.1-0.1-0.2-0.2-0.3-0.2l-0.3-0.3l0,0V40l1.8,8l0,0c0,0.1,0,0.1,0.1,0.2l1.2,1.3h1.2v-0.3l0,0c0-3.7-0.6-7.3-1.7-10.8l0,0
				C81.6,38.3,81.6,38.3,81.6,38.2z"/>
			<path id="_Pfad_67" fill="#727170" d="M81,48.7L81,48.7c0,0.2,0.1,0.4,0.1,0.7v0.1l0,0v0.7l0,0v0.1c0,0.2-0.1,0.4-0.1,0.6l0,0
				l1.2-1.3L81,48.3l0,0C80.9,48.3,81,48.6,81,48.7z"/>
			<path id="_Zusammengesetzter_Pfad_6" fill="#010101" d="M81,50.2L81,50.2c0-0.3,0.1-0.4,0.1-0.7v-0.9c0-0.2-0.1-0.4-0.1-0.6
				s0-0.1-0.1-0.2c-0.1-0.4-0.2-0.7-0.4-1l-0.1-0.1c-0.1-0.1-0.1-0.2-0.2-0.2l-0.3-0.3l-0.1-0.1C79.7,46,79.6,46,79.5,46h0.1
				c-0.1,0-0.2-0.1-0.3-0.1s-0.2,0-0.3,0.1h-0.1c-0.1,0-0.2,0.1-0.2,0.1s-0.1,0-0.1,0.1l-0.3,0.3c-0.1,0.1-0.1,0.2-0.2,0.2L78,46.8
				c-0.2,0.3-0.4,0.6-0.4,1v0.1c-0.1,0.2-0.1,0.4-0.1,0.6v0.2c0,0.2-0.1,0.4-0.1,0.7v0.1l0,0c0,1.9,0.8,3.4,1.9,3.4
				c0.2,0,0.3-0.1,0.5-0.2c0,0,0.1,0,0.1-0.1l0,0c0.1,0,0.2-0.1,0.2-0.2l0.1-0.1l0.2-0.2c0.1-0.1,0.1-0.2,0.2-0.3
				c0.1-0.1,0.1-0.1,0.1-0.2s0.1-0.2,0.2-0.3c0,0,0-0.1,0.1-0.1l0,0c0.1-0.2,0.1-0.3,0.2-0.5C80.9,50.7,81,50.5,81,50.2z M79.2,49.1
				c-0.4,0-0.8-0.6-0.8-1.3c0-0.7,0.3-1.3,0.8-1.3s0.8,0.6,0.8,1.3S79.6,49.1,79.2,49.1L79.2,49.1z"/>
			<ellipse id="_Pfad_68" fill="#FFFFFF" cx="79.1" cy="47.8" rx="0.8" ry="1.3"/>
			<path id="_Pfad_69" fill="#9C9B9B" d="M77.4,48L77.4,48c0.1-0.4,0.2-0.7,0.4-1l0.1-0.1c0.1-0.1,0.1-0.2,0.2-0.2l0.3-0.3l0.1-0.1
				c0.1-0.1,0.2-0.1,0.3-0.1h0.1c0.1,0,0.2-0.1,0.3-0.1s0.2,0,0.3,0.1h0.1c0.1,0,0.2,0.1,0.3,0.1c0,0,0.1,0,0.1,0.1l0,0l0.3,0.3
				c0.1,0.1,0.1,0.2,0.2,0.2l0.1,0.1c0.2,0.3,0.3,0.6,0.4,1l0,0l-1.8-8L77.4,48L77.4,48z"/>
			<path id="_Zusammengesetzter_Pfad_7" fill="#010101" d="M55.9,49.4v-0.5l0,0c0-0.1,0-0.3-0.1-0.4l0,0c0-0.2-0.1-0.3-0.1-0.4l0,0
				c-0.1-0.2-0.1-0.3-0.2-0.4l0,0c-0.1-0.1-0.2-0.3-0.2-0.4l0,0c-0.2-0.4-0.5-0.8-0.8-1.1c-0.4-0.4-0.9-0.7-1.4-0.9l0,0
				c-0.3-0.1-0.5-0.2-0.8-0.2l0,0C52,45,51.7,45,51.5,45c-0.3,0-0.6,0-0.8,0.1l0,0l-0.8,0.2l0,0c-0.3,0.1-0.6,0.2-0.8,0.4l0,0
				c-0.3,0.2-0.4,0.3-0.7,0.5l0,0c-0.3,0.3-0.6,0.7-0.8,1.1l0,0c-0.1,0.1-0.1,0.2-0.2,0.3l0,0c-0.1,0.1-0.1,0.2-0.2,0.3V48
				c0,0.1-0.1,0.3-0.1,0.3v0.1c0,0.1,0,0.2-0.1,0.3v0.6c0,0.3,0,0.6,0.1,0.9l0,0c0.1,0.3,0.2,0.6,0.2,0.8l0,0c0.2,0.5,0.5,1,0.9,1.4
				c0.3,0.3,0.7,0.6,1.1,0.8l0,0c0.1,0.1,0.3,0.2,0.4,0.2l0,0c0.1,0.1,0.3,0.1,0.3,0.2h0.1c0.1,0,0.3,0.1,0.3,0.1h0.1
				c0.1,0,0.2,0,0.3,0.1h0.6c0.6,0,1.2-0.1,1.8-0.3c0.3-0.1,0.6-0.2,0.8-0.4c0.5-0.3,0.9-0.8,1.3-1.3c0.2-0.2,0.3-0.5,0.4-0.8
				C55.9,50.5,56,49.9,55.9,49.4L55.9,49.4z M51.4,48.9c-1,0-1.8-0.8-1.8-1.8s0.8-1.8,1.8-1.8s1.8,0.8,1.8,1.8
				C53.1,48.1,52.3,48.9,51.4,48.9z"/>
			<circle id="_Pfad_70" fill="#FFFFFF" cx="51.4" cy="47.1" r="1.8"/>
			<path id="_Pfad_71" fill="#C8C6C7" d="M48.2,46.2L48.2,46.2l3.2-9.7v-2.3l0,0c-1.8-0.4-3.6-0.6-5.5-0.6c-0.6,0-1.2,0-1.9,0.1
				h-0.3c-3.2,0.3-6.3,1.1-9.3,2.4c-2.5,1.1-4.8,2.6-6.9,4.4l0,0c-0.6,0.5-1.1,1-1.6,1.5l-0.2,0.2c-0.5,0.5-0.9,1-1.4,1.5
				c-0.1,0.1-0.2,0.2-0.3,0.3c-0.4,0.5-0.9,1.1-1.4,1.7c0,0.1-0.1,0.1-0.1,0.2c-0.4,0.6-0.8,1.1-1.2,1.7c-0.1,0.1-0.2,0.3-0.3,0.3
				c-0.3,0.5-0.6,1-0.8,1.4h14.4L48.2,46.2z"/>
			<path id="_Pfad_72" fill="#E9E4E3" d="M60.4,45.1c0-0.3,0.1-0.8,0.1-1.1c0-0.5,0.1-1,0.1-1.5V41c0-1-0.1-2-0.1-3.1h-0.1
				c-0.2-0.1-0.7-0.3-1.1-0.6l0,0c-0.1-0.1-0.2-0.1-0.3-0.2l0,0c0,0-0.1-0.1-0.2-0.1l0,0c-0.1,0-0.1-0.1-0.2-0.1
				c-0.7-0.3-1.3-0.7-2-0.9c-1.7-0.6-3.4-1.2-5.1-1.6v2.3l3.1,9.7l0,0c0.3,0.3,0.6,0.7,0.8,1.1l0,0c0.1,0.2,0.2,0.3,0.2,0.4l0,0
				c0.1,0.2,0.1,0.3,0.2,0.4l0,0c0.1,0.1,0.1,0.3,0.1,0.4l0,0c0,0.1,0,0.3,0.1,0.4l0,0v0.5h3.9c0.2-1.4,0.4-2.9,0.6-4.3L60.4,45.1
				L60.4,45.1z"/>
			<path id="_Pfad_73" fill="#F8B232" d="M56,63.3l2.5-2.5c0.5-0.5,0.9-0.9,1.3-1.4c3.2-3.5,5.6-6.8,7-11c0-0.1,0.1-0.3,0.1-0.4
				v-0.1c0-0.2,0.1-0.3,0.1-0.5V47c-0.4-1.8-1-3.7-1.7-5.4l0,0L65,41.3c-0.3-0.3-0.8-0.7-1.1-1c-1.1-1-2.3-1.8-3.5-2.6l0,0
				c0.1,1,0.1,2,0.1,3.1v1.5c0,0.5,0,1-0.1,1.5c0,0.3-0.1,0.8-0.1,1.1V45c-0.1,1.4-0.3,2.9-0.6,4.3l-0.3,2.4
				c-0.9,3.8-2.9,7.3-4.5,10.9c-0.4,0.9-0.8,1.9-1.2,2.9c0,0.1-0.1,0.2-0.1,0.3l1.3-1.3C55.2,64,55.7,63.7,56,63.3z"/>
			<path id="_Pfad_74" fill="#9C9B9B" d="M48.2,46.1L48.2,46.1c0.2-0.2,0.4-0.4,0.7-0.5l0,0c0.2-0.2,0.5-0.2,0.8-0.4l0,0
				c0.3-0.1,0.5-0.2,0.8-0.2l0,0c0.3-0.1,0.5-0.1,0.8-0.1s0.6,0,0.8,0.1l0,0l0.8,0.2l0,0c0.5,0.2,1,0.5,1.4,0.9l0,0l-3.1-9.7
				L48.2,46.1z"/>
			<path id="_Pfad_75" fill="#727170" d="M47.1,51.3c-0.1-0.3-0.2-0.6-0.3-0.8l0,0c-0.1-0.3-0.1-0.6-0.1-0.9V49c0-0.1,0-0.2,0.1-0.3
				v-0.1c0-0.1,0.1-0.3,0.1-0.3v-0.1c0-0.1,0.1-0.2,0.2-0.3l0,0c0.1-0.2,0.1-0.3,0.2-0.3l0,0c0.2-0.4,0.5-0.8,0.8-1.1l0,0l-13.3,3.3
				l0,0L48.1,53C47.6,52.3,47.3,51.8,47.1,51.3L47.1,51.3z"/>
			<path id="_Pfad_76" fill="#E9E4E3" d="M77.2,48.7v-0.2c0-0.2,0.1-0.3,0.1-0.6v-0.1l1.8-8v-4.6c-1.3-1.1-2.9-1.8-4.6-1.9
				c-2,0.1-3.9,1-5.3,2.4c-1.5,1.6-2.8,3.4-3.7,5.3c-0.1,0.1-0.1,0.2-0.2,0.3c0.3,0.3,0.6,0.5,0.8,0.8c0.7,0.6,1.3,1.2,1.9,1.9
				l0.8,0.8l0.9,0.9c0.4,0.4,0.8,0.8,1.2,1.3l0.5,0.5c0.4,0.5,0.9,1,1.3,1.5l0,0l0.2,0.2H77v-0.1C77.1,49.1,77.1,48.9,77.2,48.7z"/>
			<path id="_Pfad_77" fill="#5C5A58" d="M18,54.5L18,54.5c0.2-0.8,0.5-1.4,0.8-2l0.3-0.5l0.8-1.5c0.1-0.2,0.2-0.4,0.3-0.6
				c0.1-0.1,0.1-0.2,0.2-0.3c0.3-0.5,0.6-1,0.8-1.4c0.1-0.1,0.2-0.3,0.2-0.3c0.4-0.6,0.7-1.2,1.2-1.7c0-0.1,0.1-0.1,0.1-0.2
				c0.4-0.6,0.8-1.1,1.3-1.7c0.1-0.1,0.2-0.2,0.3-0.3c0.4-0.5,0.9-1,1.4-1.5l0.3-0.3c0.5-0.5,1.1-1,1.6-1.5l0,0
				c2.2-7.5,9.1-12.7,16.9-12.8c3.2,0,6.4,0.9,9.1,2.7c2.8,1.7,5.1,4.2,6.6,7.2v0.1c0,0.1,0.1,0.2,0.1,0.3l0,0
				c1.3,0.7,2.5,1.6,3.5,2.6c0.3,0.3,0.8,0.7,1.1,1l0.3,0.3l0,0c0-0.1,0.1-0.2,0.1-0.3c1.1-7.1,4.2-12.2,7.9-12.2
				c2.8,0,5.2,2.9,6.8,7.3V37l0,0l1.3,1.5l0,0c0,0.1,0,0.2,0.1,0.2l0,0l-0.1-0.2c-4.7-14-17.8-23.4-32.6-23.4
				C30,14.9,14.6,30.3,14.6,49.3c0,3.6,0.6,7.2,1.7,10.7l0,0l0.8-3C17.4,56,17.7,55.2,18,54.5z"/>
			<path id="_Pfad_78" fill="#FFFFFF" d="M82.1,49.5l-1.2,1.3l0,0c-0.1,0.2-0.1,0.3-0.2,0.5c0,0,0,0.1-0.1,0.1l0,0
				c-0.1,0.1-0.1,0.3-0.2,0.3s-0.1,0.1-0.1,0.2s-0.1,0.2-0.2,0.2l-0.3,0.3l-0.1,0.1c-0.1,0.1-0.2,0.1-0.2,0.2s-0.1,0-0.1,0.1
				c-0.2,0.1-0.3,0.2-0.5,0.2c-1.1,0-1.9-1.5-1.9-3.4h-4c0.8,0.8,1.4,1.7,2.2,2.6l0,0l2,2.5l0.1,0.1c0.7,0.8,1.3,1.6,1.9,2.4
				c0.1,0.1,0.1,0.2,0.2,0.3c0.7,0.8,1.3,1.8,1.9,2.6l0,0c1.1-3.4,1.7-7,1.8-10.6L82.1,49.5L82.1,49.5z"/>
			<path id="_Pfad_79" fill="#010101" d="M43.8,33.6h0.3c0.6,0,1.3-0.1,1.9-0.1c1.8,0,3.7,0.2,5.5,0.6l0,0V34
				c1.8,0.4,3.5,0.9,5.1,1.6c0.7,0.3,1.4,0.6,2,0.9c0,0,0.1,0.1,0.2,0.1l0,0c0.1,0,0.1,0,0.2,0.1l0,0c0.1,0.1,0.2,0.1,0.3,0.2l0,0
				c0.4,0.3,0.9,0.5,1.1,0.6h0.1c0-0.1-0.1-0.2-0.1-0.3v-0.1c-1.6-2.8-3.9-5.1-6.6-6.8s-5.9-2.6-9.1-2.6C36.9,27.8,30,33,27.8,40.5
				c2.1-1.8,4.4-3.3,6.9-4.4C37.5,34.7,40.6,33.9,43.8,33.6z"/>
			<path id="_Pfad_80" fill="#010101" d="M69.3,36.1c1.4-1.5,3.3-2.3,5.3-2.4c1.7,0.1,3.3,0.7,4.6,1.9l0,0c0.2,0.1,0.2,0.3,0.3,0.3
				c0.1,0.1,0.2,0.2,0.3,0.2l0.6,0.6l0,0v-0.1c-1.5-4.5-4-7.3-6.8-7.3c-3.7,0-6.8,5.1-7.9,12.2l0,0C66.6,39.4,67.8,37.6,69.3,36.1z"
				/>
			<path id="_Pfad_81" fill="#FFFFFF" d="M36.7,81.1c0.3,0.1,0.6,0.3,0.9,0.3c3.6,1.3,7.5,2,11.3,1.9c4.4,0,8.7-0.9,12.8-2.4
				c0.2-0.1,0.4-0.2,0.6-0.3c0.3-0.2,0.7-0.3,1-0.4s0.6-0.3,0.8-0.4h-0.3c-1.2,0.2-2.4,0.2-3.6,0c-7.1-1-8.6-4.4-8.4-7.9
				c-0.5-0.3-1-0.6-1.5-1c-3.2-2.4-6.1-5.1-8.7-8.2c3.2,2.3,6.8,4.2,10.5,5.7c0.2,0.1,0.3,0.1,0.4,0.2c0.3-1,0.7-1.9,0.9-2.8l0,0
				c0-0.1,0.1-0.2,0.1-0.3c0.3-1,0.7-1.9,1.2-2.9c1.6-3.6,3.5-7.1,4.5-10.9l0.4-2.1H56c0,0.6-0.1,1.2-0.3,1.8
				c-0.1,0.3-0.2,0.5-0.4,0.8c-0.3,0.5-0.8,0.9-1.3,1.3c-0.2,0.2-0.5,0.3-0.8,0.4c-0.6,0.2-1.2,0.3-1.8,0.3h-0.6
				c-0.1,0-0.2,0-0.3-0.1h-0.1c-0.1,0-0.3-0.1-0.3-0.1H50c-0.1-0.1-0.3-0.1-0.3-0.2l0,0c-0.2-0.1-0.2-0.1-0.4-0.2l0,0
				c-0.4-0.2-0.8-0.5-1.1-0.8L35,49.6H20.4c-0.1,0.1-0.1,0.2-0.2,0.3c-0.1,0.2-0.3,0.4-0.3,0.6L19.1,52l-0.3,0.5
				c-0.2,0.7-0.6,1.3-0.8,1.9v0.1c-0.3,0.7-0.6,1.5-0.8,2.3c-0.3,1-0.6,2-0.8,3c2.3,6.9,6.6,12.9,12.5,17.1c0.2,0.1,0.3,0.3,0.5,0.3
				c1,0.7,2,1.3,3,1.9C33.8,80,35.3,80.6,36.7,81.1z"/>
			<path id="_Pfad_82" fill="#A32553" d="M60.5,70.5c-0.1,0.4-0.1,0.7-0.1,1.1c0,0.6,0,1.2,0.1,1.8c0.1,0.4,0.2,0.8,0.3,1.1
				c0.2,0.5,0.3,1,0.5,1.4s0.4,0.9,0.7,1.3c0.1,0.1,0.2,0.3,0.3,0.3s0.2,0.3,0.3,0.5c0.2,0.2,0.3,0.4,0.4,0.6
				c0.3,0.4,0.7,0.8,1.1,1.1l0,0v0.1h0.2c1.6-0.2,3.1-0.6,4.6-1.2c0.8-0.3,1.5-0.6,2.3-0.9c0.3-0.1,0.4-0.2,0.7-0.3
				c7.9-3.8,14.4-10.6,14.4-10.6C76.5,71.8,66.9,71.5,60.5,70.5z"/>
			<path id="_Pfad_83" fill="#DF1668" d="M79.4,57.3c-0.6-0.8-1.3-1.6-1.9-2.4l-0.1-0.1l-2-2.5l0,0c-0.7-0.8-1.4-1.7-2.2-2.6
				L73,49.5c-0.4-0.5-0.9-1-1.4-1.5l-0.5-0.5c-0.4-0.4-0.8-0.8-1.2-1.3L69,45.3l-0.8-0.8c-0.6-0.6-1.3-1.3-1.9-1.9
				c-0.2-0.3-0.6-0.5-0.8-0.8l0,0c0.7,1.8,1.3,3.6,1.7,5.5c0.1,0.5,0.2,0.9,0.3,1.4c0.8,6.4-1.2,10.6-4.5,16.2
				c-0.2,0.4-0.5,0.8-0.8,1.2c-0.7,1.1-1.2,2.3-1.5,3.5c-0.1,0.3-0.2,0.8-0.3,1.1c6.4,1,16.1,1.3,26-3.6c0,0-1.9-2.9-4.9-6.8
				c-0.7-0.8-1.3-1.8-1.9-2.6C79.6,57.4,79.5,57.3,79.4,57.3z"/>
			<path id="_Pfad_84" fill="#010101" d="M64.1,79.7c-0.4-0.3-0.8-0.7-1.1-1.1c-0.2-0.2-0.3-0.4-0.4-0.6s-0.3-0.3-0.3-0.5
				s-0.2-0.3-0.2-0.3c-0.3-0.4-0.5-0.8-0.7-1.3S61,75,60.9,74.5c-0.1-0.3-0.2-0.7-0.3-1.1c-0.1-0.6-0.1-1.2-0.1-1.8
				c0-0.3,0.1-0.7,0.1-1.1s0.1-0.7,0.3-1.1c0.3-1.3,0.8-2.5,1.5-3.5l0,0c0.3-0.4,0.5-0.8,0.7-1.2c3.3-5.6,5.3-9.7,4.5-16.2
				c-0.1-0.4-0.2-0.9-0.3-1.4c-0.1,0.3-0.1,0.6-0.2,0.8V48c0,0.2-0.1,0.3-0.1,0.4c-1.4,4.2-3.8,7.5-7,11c-0.4,0.5-0.9,0.9-1.3,1.4
				c-0.8,0.9-1.6,1.7-2.5,2.5l-1.1,1.1l-1.3,1.3l0,0c-0.4,0.9-0.7,1.8-0.9,2.8c-0.2-0.1-0.3-0.1-0.4-0.2c-3.7-1.4-7.2-3.3-10.5-5.7
				c2.5,3.1,5.4,5.9,8.7,8.2c0.5,0.4,1,0.7,1.5,1c-0.3,3.5,1.3,6.9,8.4,7.9C61.8,80,63,80,64.1,79.7C64.1,79.8,64.1,79.8,64.1,79.7z
				"/>
		</g>
	</g>
</g>
</svg>
