<svg xmlns="http://www.w3.org/2000/svg" viewBox="0 0 512 512" fill="none">
  <defs>
    <linearGradient id="grad1" x1="0%" y1="0%" x2="100%" y2="100%">
      <stop offset="0%" style="stop-color:#3B82F6;stop-opacity:1" />
      <stop offset="100%" style="stop-color:#8B5CF6;stop-opacity:1" />
    </linearGradient>
  </defs>
  <rect width="512" height="512" rx="96" fill="url(#grad1)"/>
  <path d="M256 120c-74.7 0-136 61.3-136 136s61.3 136 136 136 136-61.3 136-136-61.3-136-136-136zm0 240c-57.4 0-104-46.6-104-104s46.6-104 104-104 104 46.6 104 104-46.6 104-104 104z" fill="white"/>
  <path d="M256 184c-39.8 0-72 32.2-72 72s32.2 72 72 72 72-32.2 72-72-32.2-72-72-72zm0 112c-22.1 0-40-17.9-40-40s17.9-40 40-40 40 17.9 40 40-17.9 40-40 40z" fill="white"/>
  <circle cx="256" cy="256" r="24" fill="white"/>
  <path d="M336 176l32-32M176 336l-32 32M336 336l32 32M176 176l-32-32" stroke="white" stroke-width="16" stroke-linecap="round"/>
</svg>