<?xml version="1.0" encoding="utf-8"?>
<!-- Generator: Adobe Illustrator 22.1.0, SVG Export Plug-In . SVG Version: 6.00 Build 0)  -->
<svg version="1.1" id="Layer_1" xmlns="http://www.w3.org/2000/svg" xmlns:xlink="http://www.w3.org/1999/xlink" x="0px" y="0px"
	 viewBox="0 0 704.7 102" enable-background="new 0 0 704.7 102" xml:space="preserve">
<g id="squarespace-logo" transform="translate(62.000000, 47.000000)">
	<g>
		<path id="Fill-1" d="M-35.8,7L3.7-33c2.7-2.7,6.3-4.2,10.1-4.2c3.8,0,7.4,1.5,10.1,4.2l3.1,3.1l6.2-6.2l-3.1-3.1
			C25.6-43.6,19.9-46,13.7-46c-6.1,0-11.9,2.4-16.2,6.8L-42,0.8L-35.8,7z"/>
		<path id="Fill-3" d="M17-19.7l-6.2-6.2L-28.9,14c-5.6,5.6-14.6,5.6-20.2,0s-5.6-14.7,0-20.3l34.3-34.5L-21-47l-34.3,34.4
			c-9,9-9,23.7,0,32.8C-50.8,24.6-45,27-39,27c6.2,0,11.9-2.4,16.3-6.8L17-19.7z"/>
		<path id="Fill-5" d="M56.4-12.2C52-16.6,46.3-19,40-19c-6.2,0-11.9,2.4-16.3,6.8l-39.7,39.9l6.2,6.2L30-6c5.6-5.6,14.6-5.6,20.2,0
			c2.7,2.7,4.2,6.3,4.2,10.2c0,3.8-1.5,7.5-4.2,10.2L15.9,48.8L22,55l34.2-34.4C65.3,11.5,65.3-3.2,56.4-12.2"/>
		<path id="Fill-7" d="M36.9,1L-2.7,41c-5.5,5.6-14.6,5.6-20.1,0l-3.1-3.1l-6.1,6.2l3.1,3.1c4.3,4.4,10.1,6.8,16.2,6.8
			s11.9-2.4,16.2-6.8L43,7.2L36.9,1z"/>
		<path id="Fill-9" d="M99.6,14.4c0.5,2.6,1.7,4.5,3.6,6c1.9,1.4,4.3,2.2,7.4,2.2c3,0,5.3-0.7,7-2.1c1.6-1.4,2.5-3.3,2.5-5.6
			c0-1.1-0.2-2.1-0.7-2.9c-0.4-0.8-1.1-1.4-1.8-2c-0.8-0.5-1.8-1-2.9-1.4c-1.2-0.4-2.5-0.8-3.9-1.2l-3.7-1.1c-2.2-0.6-4.2-1.4-6-2.2
			c-1.8-0.9-3.3-1.9-4.5-3.1c-1.2-1.2-2.2-2.5-2.8-4.1c-0.6-1.5-1-3.3-1-5.3c0-2.1,0.4-4.1,1.3-5.9c0.8-1.8,2-3.3,3.5-4.6
			s3.4-2.3,5.6-3c2.2-0.7,4.6-1.1,7.4-1.1c5.1,0,9.2,1.2,12.2,3.7s4.8,5.8,5.3,10l-8.3,0.7c-0.5-2.1-1.5-3.8-3.1-5s-3.7-1.8-6.4-1.8
			c-2.5,0-4.5,0.6-6,1.8c-1.4,1.2-2.2,2.8-2.2,4.6c0,1.1,0.2,2,0.6,2.7c0.4,0.7,1,1.4,1.8,1.9s1.7,1,2.9,1.5
			c1.1,0.4,2.4,0.9,3.9,1.3l3.5,1.1c2.2,0.7,4.2,1.5,6,2.2c1.8,0.8,3.3,1.7,4.6,2.8s2.2,2.4,2.9,3.9s1,3.4,1,5.6
			c0,2.4-0.5,4.5-1.4,6.5s-2.2,3.6-3.9,5s-3.6,2.4-5.9,3.2c-2.3,0.8-4.8,1.1-7.6,1.1c-5.1,0-9.4-1.2-12.9-3.7
			c-3.4-2.5-5.5-6.2-6.3-11.1L99.6,14.4z"/>
		<path id="Fill-11" d="M164.9-14.4c-2.5,0-4.7,0.5-6.7,1.4s-3.6,2.2-5,3.9s-2.4,3.6-3.1,5.9c-0.7,2.3-1.1,4.8-1.1,7.4
			c0,2.7,0.4,5.2,1.1,7.5c0.7,2.3,1.8,4.3,3.2,6c1.4,1.7,3,3,5,4s4.2,1.4,6.7,1.4s4.7-0.5,6.7-1.4s3.6-2.2,5-3.8
			c1.4-1.6,2.4-3.6,3.2-5.9c0.7-2.3,1.1-4.9,1.1-7.6c0-2.7-0.4-5.2-1.1-7.5c-0.7-2.3-1.8-4.3-3.2-5.9c-1.4-1.6-3-2.9-5-3.9
			C169.7-13.9,167.4-14.4,164.9-14.4 M164.9-22c3.7,0,7.2,0.6,10.3,1.9s5.7,3.1,7.9,5.4s3.9,5.1,5.1,8.4c1.2,3.2,1.8,6.8,1.8,10.6
			c0,4-0.6,7.6-1.9,10.8c-1.3,3.2-3.1,6-5.5,8.4l6.7,8V34h-8.5l-4.7-5.8c-1.6,0.8-3.4,1.3-5.2,1.8c-1.9,0.4-3.8,0.6-6,0.6
			c-3.8,0-7.3-0.6-10.4-1.9c-3.1-1.3-5.7-3.1-7.8-5.4c-2.2-2.3-3.8-5.1-5-8.3S140,8.3,140,4.5c0-3.9,0.6-7.4,1.8-10.6s2.9-6,5-8.3
			c2.2-2.3,4.8-4.1,7.9-5.5C157.9-21.3,161.3-22,164.9-22"/>
		<path id="Fill-13" d="M224.1,22.7c3.6,0,6.3-1.1,8.3-3.4c2-2.2,3-5.7,3-10.3v-31h8.7V9.2c0,3.7-0.5,6.8-1.4,9.5
			c-0.9,2.6-2.2,4.8-3.9,6.4c-1.7,1.7-3.8,2.9-6.3,3.7c-2.5,0.8-5.3,1.2-8.4,1.2s-5.9-0.4-8.4-1.2c-2.5-0.8-4.6-2-6.3-3.7
			c-1.7-1.7-3-3.8-3.9-6.4s-1.4-5.8-1.4-9.5V-22h8.7V9c0,4.6,1,8.1,3,10.3C217.8,21.6,220.4,22.7,224.1,22.7"/>
		<path id="Fill-15" d="M269,7.2h16.7L283-0.7c-1.1-3.1-1.9-5.6-2.6-7.6s-1.2-3.7-1.8-5.2h-2.2c-0.3,0.8-0.6,1.6-0.8,2.4
			c-0.3,0.8-0.6,1.7-1,2.6c-0.4,1-0.7,2.1-1.2,3.3c-0.4,1.3-0.9,2.7-1.5,4.4L269,7.2z M253.1,26.6L271-21h13.3L302,26.6V29h-8.7
			l-5.1-14.3h-21.9L261.3,29h-8.2V26.6z"/>
		<path id="Fill-17" d="M321.6,1.8h7.6c3.3,0,6-0.6,7.9-1.8s2.9-3.2,2.9-6s-1-4.8-2.9-5.9c-2-1.1-4.6-1.7-7.9-1.7h-7.6V1.8z M351,29
			h-8.4L327.4,9.4h-5.6V29H313v-50h16.2c2.6,0,5,0.2,7.3,0.5s4.4,1.1,6.2,2.4c3.9,2.6,5.9,6.5,5.9,11.8c0,2.3-0.3,4.3-1,6
			S346,2.8,344.9,4s-2.4,2.1-3.9,2.9c-1.5,0.7-3,1.3-4.6,1.7l14.4,18V29H351z"/>
		<polygon id="Fill-19" points="362,-21 394.5,-21 394.5,-13.3 370.6,-13.3 370.6,-0.2 392.8,-0.2 392.8,7.3 370.6,7.3 370.6,21.3 
			395,21.3 395,29 362,29 		"/>
		<path id="Fill-21" d="M414.5,14.4c0.5,2.6,1.7,4.5,3.6,6c1.9,1.4,4.3,2.2,7.4,2.2c3,0,5.3-0.7,7-2.1c1.6-1.4,2.5-3.3,2.5-5.6
			c0-1.1-0.2-2.1-0.7-2.9c-0.4-0.8-1.1-1.4-1.8-2c-0.8-0.5-1.8-1-2.9-1.4c-1.2-0.4-2.5-0.8-3.9-1.2L422,6.3c-2.2-0.6-4.2-1.4-6-2.2
			c-1.8-0.9-3.3-1.9-4.5-3.1c-1.3-1.2-2.2-2.5-2.8-4.1c-0.6-1.5-1-3.3-1-5.3c0-2.1,0.4-4.1,1.3-5.9c0.8-1.8,2-3.3,3.5-4.6
			c1.5-1.3,3.4-2.3,5.6-3s4.6-1.1,7.4-1.1c5.1,0,9.2,1.2,12.2,3.7s4.8,5.8,5.3,10l-8.3,0.7c-0.5-2.1-1.5-3.8-3.1-5
			c-1.5-1.2-3.7-1.8-6.4-1.8c-2.5,0-4.5,0.6-6,1.8c-1.4,1.2-2.2,2.8-2.2,4.6c0,1.1,0.2,2,0.6,2.7s1,1.4,1.8,1.9s1.7,1,2.9,1.5
			c1.1,0.4,2.4,0.9,3.9,1.3l3.5,1.1c2.2,0.7,4.2,1.5,6,2.2c1.8,0.8,3.3,1.7,4.5,2.8c1.3,1.1,2.2,2.4,2.9,3.9c0.7,1.5,1,3.4,1,5.6
			c0,2.4-0.5,4.5-1.4,6.5s-2.2,3.6-3.9,5c-1.7,1.4-3.6,2.4-5.9,3.2c-2.3,0.8-4.8,1.1-7.6,1.1c-5.1,0-9.4-1.2-12.9-3.7
			c-3.4-2.5-5.5-6.2-6.3-11.1L414.5,14.4z"/>
		<path id="Fill-23" d="M466,2.3h8.5c1.6,0,3-0.1,4.3-0.4c1.3-0.3,2.4-0.7,3.4-1.3s1.7-1.4,2.3-2.4c0.5-1,0.8-2.3,0.8-3.7
			c0-1.5-0.3-2.8-0.8-3.8s-1.3-1.9-2.2-2.5s-2.1-1-3.4-1.3c-1.3-0.3-2.7-0.4-4.2-0.4H466L466,2.3L466,2.3z M457-21h18.6
			c3.4,0,6.3,0.4,8.7,1.2c2.3,0.8,4.2,1.9,5.7,3.3c1.4,1.4,2.5,3,3.1,4.9s1,3.9,1,6.1c0,2.6-0.4,4.9-1.3,6.8s-2.1,3.5-3.8,4.8
			s-3.7,2.2-6,2.8c-2.4,0.6-5,0.9-8,0.9h-9V29h-9V-21z"/>
		<path id="Fill-25" d="M512,7.2h16.7L526-0.7c-1.1-3.1-1.9-5.6-2.6-7.6c-0.7-2-1.2-3.7-1.8-5.2h-2.2c-0.3,0.8-0.6,1.6-0.8,2.4
			c-0.3,0.8-0.6,1.7-1,2.6c-0.4,1-0.7,2.1-1.2,3.3c-0.4,1.3-0.9,2.7-1.5,4.4L512,7.2z M496,26.6L514-21h13.3L545,26.6V29h-8.7
			l-5.1-14.3h-21.9L504.3,29H496V26.6z"/>
		<path id="Fill-27" d="M598,15.8c-0.8,2-1.8,3.8-3.1,5.5c-1.3,1.7-2.8,3.2-4.7,4.5c-1.8,1.3-3.9,2.3-6.3,3.1s-5.1,1.1-8,1.1
			c-3.7,0-7.1-0.7-10.2-2c-3.1-1.3-5.7-3.1-7.8-5.4c-2.2-2.3-3.8-5-5-8.2s-1.8-6.6-1.8-10.4c0-3.7,0.6-7.2,1.8-10.4s2.9-5.9,5.1-8.3
			c2.2-2.3,4.8-4.1,7.9-5.5c3.1-1.3,6.5-2,10.3-2c5.5,0,10.1,1.3,13.9,3.8c3.7,2.6,6.3,5.9,7.9,10.2l-8.9,1.7
			c-1.2-2.6-2.9-4.6-5.1-6c-2.2-1.5-4.8-2.2-7.9-2.2c-2.5,0-4.7,0.5-6.6,1.4s-3.6,2.3-4.9,3.9c-1.3,1.7-2.4,3.6-3.1,5.9
			c-0.7,2.3-1.1,4.7-1.1,7.3s0.4,5.1,1.1,7.3c0.7,2.2,1.8,4.2,3.2,5.8s3.1,2.9,5,3.9c2,0.9,4.2,1.4,6.7,1.4c3.3,0,6-0.8,8.1-2.4
			s3.8-3.5,4.9-5.8L598,15.8z"/>
		<g id="Group-31" transform="translate(671.000000, 25.000000)">
			<defs>
				<filter id="Adobe_OpacityMaskFilter" filterUnits="userSpaceOnUse" x="-61.5" y="-46.6" width="33.2" height="50.5">
					<feColorMatrix  type="matrix" values="1 0 0 0 0  0 1 0 0 0  0 0 1 0 0  0 0 0 1 0"/>
				</filter>
			</defs>
			<mask maskUnits="userSpaceOnUse" x="-61.5" y="-46.6" width="33.2" height="50.5" id="mask-2_2_">
				<g filter="url(#Adobe_OpacityMaskFilter)">
					<polygon id="path-1_2_" fill="#FFFFFF" points="-61.5,-46.6 -28.4,-46.6 -28.4,3.9 -61.5,3.9 					"/>
				</g>
			</mask>
			<polygon id="Fill-29" mask="url(#mask-2_2_)" points="-61.5,-46.6 -28.9,-46.6 -28.9,-38.9 -52.8,-38.9 -52.8,-25.7 -30.5,-25.7 
				-30.5,-18.1 -52.8,-18.1 -52.8,-3.9 -28.4,-3.9 -28.4,3.9 -61.5,3.9 			"/>
		</g>
	</g>
</g>
</svg>
