<?xml version="1.0" encoding="utf-8"?>
<!-- Generator: Adobe Illustrator 22.1.0, SVG Export Plug-In . SVG Version: 6.00 Build 0)  -->
<svg version="1.1" id="Layer_1" xmlns="http://www.w3.org/2000/svg" xmlns:xlink="http://www.w3.org/1999/xlink" x="0px" y="0px"
	 viewBox="0 0 620.9 120.4" enable-background="new 0 0 620.9 120.4" xml:space="preserve">
<g>
	<path fill="#8759F2" d="M57.1,76.6L34.7,37.7H12.1c-9.3,0-15,10.1-10.6,18l33.9,58.7c4.6,7.9,16.1,8.1,20.9,0l21.8-37.8
		C73.4,84.8,61.7,84.7,57.1,76.6"/>
	<path fill="#FF3E80" d="M79.8,37.7H34.7l22.5,38.9c4.4,8.1,16.1,8.2,20.9,0l12.2-20.9C94.8,47.6,88.8,37.7,79.8,37.7"/>
	<path fill="#FFC300" d="M101.4,0H33.7c-9.2,0-15,10-10.4,18l11.4,19.7h45.1c9.2,0,15,10.1,10.4,18L111.9,18
		C116.5,10.1,110.8,0,101.4,0"/>
	<path fill="#00D4E6" d="M23.3,18.1c-2.2-3.6-2.2-8.2,0-12L1.5,43.7c2.2-3.6,6.2-6,10.6-6h22.6L23.3,18.1"/>
	<path fill="#221B43" d="M250.5,86.4c-10.3,0-17.9-8.2-17.9-18.5s7.9-18.5,17.9-18.5s17.9,8.2,17.9,18.5S260.8,86.4,250.5,86.4
		 M250.5,36.3c-18.4,0-32.6,14.1-32.6,31.5s13.9,31.3,32.6,31.3c18.5,0,32.6-13.9,32.6-31.3C283.1,50.3,268.7,36.3,250.5,36.3z
		 M442.2,45.7c0.3-1.1,0.3-2.4-0.2-3.5s-1.4-1.9-2.5-2.2c-4.7-1.7-11.1-3.8-18.5-3.8c-13.3,0-22.3,7.4-22.8,17.1
		c-0.3,7.8,4,12.8,9.5,16c6.6,3.5,14.2,4.6,17.6,5.9c3.6,1.3,5.5,2.8,5.7,5.9c0,3-2.8,5.9-8.9,5.9c-7.4,0-13.6-2.5-17.7-4.3
		c-2.2-1.1-4.7-0.2-5.9,2.1l-1.3,3.2c-1,2.2-0.2,4.7,1.9,5.9c4.4,2.4,12.7,5.7,22.3,5.7c14.9,0,23.7-8.1,23.7-18.5
		c0-4.7-1.4-10.4-9.3-14.7c-4.3-2.4-16-4.6-19.8-6.6c-2.7-1.4-4-3.6-3.6-6c0.5-3.3,3.6-4.9,7.6-5.2c6.6-0.3,11.4,1.9,16.1,3
		c2.2,0.6,4.4-0.8,5.1-2.8L442.2,45.7z M476.3,20.1c0,4.9-3.6,8.9-9.7,8.9c-6.2,0-9.7-4-9.7-8.9s3.8-9,9.7-9S476.3,15.2,476.3,20.1z
		 M569,98h5.2c3.3,0,5.1-1.7,5.1-5.1V67.6c0.5-12,7.4-18.4,15.8-18.4c6.8,0,10.4,5.9,10.4,14.7v28.8c0,3.3,1.7,5.1,5.1,5.1h5.2
		c3.5,0,5.1-1.7,5.1-5.1V62.8c0-10.6-4.6-26.6-22.2-26.6c-14.1,0-18.5,9.2-19.5,12.2v-5.5c0-3.3-1.7-5.1-5.1-5.1h-5.2
		c-3.5,0-5.1,1.7-5.1,5.1v50C563.9,96.2,565.7,98,569,98z M379.1,37.8h-5.2c-3.3,0-5.1,1.7-5.1,5.1v25.2c-0.5,12-7.4,18.4-15.8,18.4
		c-6.8,0-10.6-5.9-10.6-14.9V42.9c0-3.3-1.6-5.1-5.1-5.1h-5.2c-3.3,0-5.1,1.7-5.1,5.1v29.9c0,10.6,4.7,26.6,22.3,26.6
		c14.1,0,18.5-9.2,19.5-12.2v5.7c0,3.3,1.7,5.1,5.1,5.1h5.2c3.3,0,5.1-1.7,5.1-5.1v-50C384.2,39.6,382.4,37.8,379.1,37.8z
		 M208.2,37.7h-4.9c-3.3,0-4.9,1.1-6.2,4.4L182.9,81l-14.4-38.9c-1.1-3.3-2.7-4.4-6-4.4h-5.1c-3.3,0-6.2,1.3-4.4,5.7l19.8,49.2
		c1.6,4.4,3.3,5.2,6.8,5.2h6.3c3.5,0,5.2-0.9,7-5.2l19.8-49.2C214.3,38.9,211.4,37.7,208.2,37.7z M469.3,37.8h-5.2
		c-3.3,0-5.1,1.7-5.1,5.1v50c0,3.3,1.7,5.1,5.1,5.1h5.2c3.3,0,5.1-1.7,5.1-5.1v-50C474.4,39.6,472.5,37.8,469.3,37.8z M306.2,12.2
		H301c-3.5,0-5.1,1.6-5.1,5.1v75.4c0,3.3,1.6,5.1,5.1,5.1h5.2c3.3,0,5.1-1.7,5.1-5.1V17.3C311.2,13.8,309.5,12.2,306.2,12.2z
		 M519.3,86.4c-10.3,0-17.9-8.2-17.9-18.5s7.9-18.5,17.9-18.5c10,0,17.9,8.2,17.9,18.5C537.2,78.2,529.4,86.4,519.3,86.4z
		 M519.3,36.3c-18.2,0-32.6,14.1-32.6,31.5s14.1,31.3,32.6,31.3c18.5,0,32.6-13.9,32.6-31.3C551.9,50.3,537.5,36.3,519.3,36.3z"/>
</g>
</svg>
