<svg enable-background="new 0 0 1108.5 127.7" height="127.7" viewBox="0 0 1108.5 127.7" width="1108.5" xmlns="http://www.w3.org/2000/svg"><path d="m473.7 43c3 0 5.5-1.6 5.8-3.6l3-33.4c0-3.3-3.9-6-8.7-6s-8.8 2.7-8.8 6l3 33.4c.3 2 2.8 3.6 5.7 3.6z" fill="#fcba30"/><path d="m455.7 53.4c1.5-2.6 1.4-5.5-.2-6.8l-27.5-19.2c-2.9-1.7-7.1.3-9.6 4.6s-2 8.9.9 10.5l30.4 14.2c1.9.6 4.5-.7 6-3.3z" fill="#fcba30"/><path d="m491.8 53.4c1.5 2.6 4.1 3.9 6 3.2l30.4-14.2c2.9-1.6 3.3-6.3.8-10.5s-6.7-6.2-9.6-4.5l-27.4 19.2c-1.6 1.3-1.7 4.2-.2 6.8z" fill="#fcba30"/><path d="m473.7 84.7c3 0 5.5 1.5 5.8 3.6l3 33.4c0 3.3-3.9 6-8.7 6s-8.7-2.7-8.7-6l3-33.4c.3-2 2.8-3.6 5.8-3.6z" fill="#fcba30"/><path d="m491.8 74.3c1.5-2.6 4.1-3.9 6-3.2l30.4 14.1c2.9 1.7 3.3 6.4.8 10.6s-6.7 6.2-9.6 4.5l-27.4-19.2c-1.6-1.3-1.7-4.2-.2-6.8z" fill="#fcba30"/><path d="m455.7 74.3c1.5 2.6 1.4 5.5-.2 6.8l-27.5 19.2c-2.9 1.7-7.1-.3-9.6-4.5s-2-8.9.9-10.6l30.4-14.1c1.9-.8 4.5.6 6 3.2z" fill="#fcba30"/><g fill="#0071dc"><path d="m313.7 67.7c0-12.6-5.4-23.7-23.6-23.7-9.4 0-16.8 2.6-20.8 5l3 10.1c4.6-2.7 9.8-4.2 15.2-4.3 9.2 0 10.8 5.2 10.8 8.6v.8c-20.1 0-32.9 6.9-32.9 21.2 0 8.7 6.5 16.8 17.7 16.8 6.9 0 12.7-2.8 16.2-7.2h.3s2.3 9.6 15 5.9c-.7-4.4-1-8.9-.9-13.4zm-15 13.3c0 1-.1 2-.4 3-1.5 4.3-5.6 7.2-10.1 7.1-4.2 0-7.5-2.4-7.5-7.4 0-7.7 8.4-9.8 18-9.7z"/><path d="m0 26.8s13.2 53.9 15.3 62.7c2.5 10.2 6.9 14 19.6 11.4l8.2-33.4c2.1-8.3 3.5-14.2 4.8-22.7h.2c.9 8.5 2.3 14.4 4 22.7 0 0 3.3 15.2 5 23.2s6.5 13 19 10.3l19.6-74.1h-15.8l-6.7 32c-1.8 9.4-3.4 16.6-4.7 25.2h-.2c-1.1-8.4-2.6-15.4-4.4-24.5l-7-32.7h-16.4l-7.5 31.7c-2.1 9.7-4 17.5-5.3 25.7h-.2c-1.3-7.8-3-17.6-4.9-26.9 0 0-4.4-22.8-6-30.6z"/><path d="m140.6 67.7c0-12.6-5.4-23.7-23.6-23.7-9.3 0-16.8 2.6-20.8 5l3 10.1c4.6-2.7 9.8-4.2 15.2-4.3 9.3 0 10.8 5.2 10.8 8.6v.8c-20.2 0-32.9 6.9-32.9 21.2 0 8.7 6.5 16.8 17.7 16.8 6.9 0 12.7-2.8 16.2-7.2h.3s2.3 9.6 15 5.9c-.7-4.4-1-8.9-.9-13.4zm-15 13.3c0 1-.1 2-.4 3-1.5 4.3-5.6 7.2-10.2 7.1-4.2 0-7.5-2.4-7.5-7.4 0-7.7 8.4-9.8 18-9.7z"/><path d="m165.7 85.2v-58.4h-15v74.1h15z"/><path d="m362.6 26.8v54.7c0 7.5 1.4 12.8 4.5 16 2.7 2.8 7 4.6 12.3 4.6 3.7 0 7.4-.5 10.9-1.6l-.3-11.7c-1.9.5-3.8.7-5.7.7-5.1 0-6.8-3.3-6.8-10v-21h13.1v-14.2h-13.1v-17.5z"/><path d="m323.8 45.2v55.7h15.5v-28.5c0-1.4.1-2.8.3-4.1 1.1-6 5.7-9.8 12.3-9.8 1.5 0 3 .1 4.5.4v-14.6c-1.1-.2-2.2-.3-3.4-.3-5.8 0-12.4 3.7-15.1 11.8h-.4v-10.6z"/><path d="m176.3 45.2v55.7h15.1v-32.7c0-1.5.2-3.1.7-4.5 1.3-3.3 4.3-7.1 9.2-7.1 6.1 0 9 5.2 9 12.6v31.7h15.1v-33c0-1.5.2-3 .6-4.5 1.2-4 4.9-6.8 9.1-6.8 6.2 0 9.1 5.1 9.1 13.8v30.5h15.1v-32.8c0-17.3-8.8-24.1-18.7-24.1-3.9-.1-7.7 1-11 3-2.8 1.8-5.2 4.2-7 6.9h-.2c-2.4-6-8-10-15.4-10-9.4 0-13.6 4.8-16.2 8.8h-.2v-7.5z"/><path d="m571.5 28.8c.2-.9 1-1.5 1.9-1.5h1.6c.8 0 1.4.5 1.8 1.1l20.7 57.6h.5l20.4-57.6c.3-.7 1-1.1 1.8-1.1h1.7c.9 0 1.6.6 1.9 1.5l13.5 70.3c.3 1.5-.3 2.5-1.9 2.5h-4.2c-.9-.1-1.6-.6-1.9-1.5l-9.3-53.8h-.4l-19.2 55.2c-.3.7-1 1.1-1.8 1.2h-1.9c-.8 0-1.4-.5-1.8-1.2l-19.4-55.2h-.5l-9.1 53.8c-.2.9-1 1.4-1.9 1.5h-4.2c-1.6 0-2.2-1-1.9-2.5z"/><path d="m666.4 70.9c3.5.1 7 .6 10.3 1.6.1-8.9-4.2-13.3-11.1-13.3-5.3 0-9 2.1-11.2 2.8-1.3.5-1.9-.1-2.3-1.3l-1-2.8c-.4-1.5.3-2.1 1.5-2.6 4.2-2.1 8.8-3.1 13.5-3.1 12.3 0 18.1 7.3 18.1 20.3v27.6c.1 1-.6 1.8-1.6 1.9-.1 0-.2 0-.3 0-3.1 0-4.8-2.4-5.1-5.6-4 4.1-9.5 6.4-15.2 6.4-8.5 0-15-6.1-15-15.8 0-9.3 7-16.1 19.4-16.1zm-3 24.8c6 0 11.2-3.3 13.3-6.5v-9.8c-3.2-1.3-6.7-2-10.3-1.9-6.7 0-11.7 3.2-11.7 9.4 0 4.9 3.3 8.8 8.7 8.8z"/><path d="m700 54.7c-.1-1 .6-1.8 1.6-1.9h.3c3 0 4.7 2.3 5 5.4 3.9-4 9.3-6.2 14.8-6.1 3.7 0 9.6.5 8.5 3.9l-1.4 3.8c-.5 1.6-1.7 1.7-2.8 1.2-1.6-.8-3.4-1.3-5.2-1.3-9.3 0-13.1 6.2-13.1 6.2v33.5c-.1 1.2-1.1 2.2-2.3 2.3h-3.1c-1.3 0-2.3-1-2.3-2.3z"/><path d="m740.4 30.7c.1-1.2 1.1-2.2 2.3-2.3h3.1c1.2.1 2.2 1.1 2.3 2.3v40.9l20.1-16.8c.8-.8 1.8-1.4 2.9-1.5h5.9c.9 0 1.7.7 1.7 1.6 0 .5-.2 1-.6 1.3l-22.3 18.5 23.9 23.8c.7.7.7 1.8.1 2.5-.3.4-.8.6-1.3.5h-6c-.9-.1-1.7-.4-2.4-.9l-22-23.3v22c-.1 1.2-1.1 2.2-2.3 2.3h-3.1c-1.3 0-2.3-1-2.3-2.3z"/><path d="m809 52.2c12.7 0 21.8 9.3 21.8 22 0 1-.1 2-.2 2.9-.1 1.2-1 2.1-2.2 2.1h-35.1c.2 8 7 16.5 15.8 16.5 4.7.1 9.2-1.3 13.1-4 1.7-1.2 2.4-1.6 3.7.3l1.3 1.8c.9 1.5 1.4 2-.4 3.3-5.1 3.7-11.3 5.6-17.6 5.5-14.6 0-23.4-11.5-23.4-25.3-.2-13.5 8.5-25.1 23.2-25.1zm14.1 20.8c-.2-7.6-6.4-13.8-14.1-13.8-7.9 0-14.6 5.9-15.6 13.8z"/><path d="m840.2 60c-1.3.1-2.3-.9-2.4-2.2v-.1-2.1c0-1.2.9-2.3 2.1-2.3h.3 6.4v-13.4c.1-1.2 1.1-2.2 2.3-2.3l3.2-.2c1.2 0 2.2.9 2.2 2.1v.2 13.6h14.2c1.3-.1 2.3.9 2.4 2.1v.2 2.1c0 1.3-1.1 2.3-2.4 2.3h-14.2v28.5c0 5 3.1 7.2 6.5 7.2 2.6 0 5.2-.7 7.4-2.1 1.9-1.2 2.6-.2 3 .9l.8 2.1c.6 1.6.4 2.4-.8 3.1-3.5 1.9-7.4 2.9-11.4 2.9-8.5 0-13.3-6.7-13.3-14.2v-28.4z"/><path d="m890.7 124.1c-.1 1.2-1.1 2.2-2.3 2.3h-3c-1.3 0-2.3-1-2.3-2.3v-69.4c-.1-1 .6-1.8 1.6-1.9h.3c2.6 0 4.3 1.8 4.8 4.4 4.2-3.2 9.3-5 14.6-5 13.2 0 22.5 11.4 22.5 25.2 0 14.1-9.5 25.3-22.8 25.3-4.8 0-9.4-1.4-13.4-4zm0-32.6s5.5 4.2 12.2 4.2c9.3 0 16.1-7.8 16.1-18.4 0-9.4-5.8-18.1-15.6-18.1-7.7 0-12.8 5.8-12.8 5.8z"/><path d="m940.7 30.7c0-1.3 1-2.3 2.3-2.3h3.1c1.2.1 2.2 1.1 2.3 2.3v68.6c0 1.2-1 2.2-2.3 2.3h-3.1c-1.3 0-2.3-1-2.3-2.3z"/><path d="m980.8 70.9c3.5.1 7 .6 10.3 1.6.1-8.9-4.2-13.3-11.1-13.3-5.3 0-9 2.1-11.2 2.8-1.3.5-1.9-.1-2.3-1.3l-1-2.8c-.4-1.5.3-2.1 1.5-2.6 4.2-2.1 8.8-3.1 13.5-3.1 12.3 0 18.1 7.3 18.1 20.3v27.6c.1 1-.6 1.8-1.6 1.9-.1 0-.2 0-.3 0-3.1 0-4.8-2.4-5.1-5.6-4 4.1-9.4 6.4-15.2 6.4-8.5 0-15-6.1-15-15.8.1-9.3 7-16.1 19.4-16.1zm-3 24.8c6 0 11.2-3.3 13.3-6.5v-9.8c-3.2-1.3-6.7-2-10.2-1.9-6.7 0-11.7 3.2-11.7 9.4-.1 4.9 3.3 8.8 8.6 8.8z"/><path d="m1035.8 52.2c6.8-.1 13.2 2.8 17.6 8 .9 1 .8 2.4-.2 3.3-.1.1-.2.1-.2.2l-1.7 1.6c-1.6 1.4-2.5.3-3.4-.7-3.3-3.8-7.2-5.2-12.1-5.2-9.2 0-16.5 8.2-16.5 18.2 0 10.2 7.2 18.3 16.2 18.3 7.3 0 10.4-3.8 13.2-6.9 1.4-1.6 2.7-1.2 4.1.2l.6.6c1 1 1.5 2.1.6 3.3-4.1 6-10.9 9.7-18.2 9.7-14.3 0-24.4-10.7-24.4-25.2-.1-14.3 10.4-25.4 24.4-25.4z"/><path d="m1086.6 52.2c12.7 0 21.8 9.3 21.8 22 0 1-.1 2-.2 2.9-.1 1.2-1 2.1-2.2 2.1h-35.1c.2 8 7 16.5 15.8 16.5 4.7.1 9.2-1.3 13.1-4 1.7-1.2 2.4-1.6 3.7.3l1.3 1.8c.9 1.5 1.3 2-.4 3.3-5.1 3.7-11.3 5.6-17.7 5.6-14.6 0-23.4-11.5-23.4-25.3-.1-13.6 8.7-25.2 23.3-25.2zm14.1 20.8c-.2-7.7-6.4-13.8-14.1-13.8-7.9 0-14.6 5.9-15.6 13.8z"/></g></svg>